<svg width="1164" height="1164" viewBox="0 0 1164 1164" fill="none" xmlns="http://www.w3.org/2000/svg">
<rect width="1164" height="1164" fill="white"/>
<path d="M251.349 351.604C246.667 348.325 245.519 341.863 248.913 337.264C311.067 253.057 402.916 195.401 506.053 176.154C612.585 156.274 722.665 178.958 812.659 239.337C902.652 299.716 965.382 392.974 987.381 499.089C1009.38 605.205 988.892 715.715 930.317 806.893C871.743 898.071 779.752 962.646 674.096 986.754C568.44 1010.86 457.544 992.579 365.217 935.833C272.89 879.086 206.496 788.4 180.288 683.245C154.916 581.442 169.169 473.937 219.915 382.402C222.687 377.403 229.042 375.761 233.97 378.656V378.656C238.899 381.552 240.534 387.889 237.769 392.892C189.763 479.752 176.312 581.695 200.374 678.239C225.271 778.136 288.346 864.288 376.056 918.198C463.766 972.107 569.118 989.475 669.491 966.572C769.865 943.67 857.256 882.324 912.902 795.705C968.547 709.086 988.01 604.101 967.112 503.291C946.213 402.482 886.619 313.886 801.126 256.526C715.632 199.167 611.056 177.616 509.85 196.503C412.04 214.756 324.916 269.37 265.875 349.14C262.475 353.735 256.032 354.883 251.349 351.604V351.604Z" fill="#0B409C"/>
<path d="M203.082 750.164C257.061 721.826 410.67 659.522 572.199 761.955C772.978 889.278 948.305 726.347 948.473 726.19L950.692 771.633C882.15 905.422 742.926 997.013 582.297 997.126H581.702C412.619 997.007 267.255 895.527 203.082 750.164Z" fill="#0B409C"/>
<ellipse cx="632.95" cy="725.21" rx="31.8462" ry="31.8461" fill="#0B409C"/>
<ellipse cx="779.444" cy="699.243" rx="48.9941" ry="48.994" fill="#0B409C"/>
<ellipse cx="839.217" cy="624.772" rx="14.6982" ry="14.6982" fill="#0B409C"/>
<ellipse cx="694.685" cy="651.719" rx="22.0473" ry="22.0473" fill="#0B409C"/>
<path d="M254.083 351.83L223.549 330.319L281.224 370.952M211.061 371.864L230.38 385.474L249.511 398.952" stroke="#0B409C" stroke-width="15.6781" stroke-linecap="round" stroke-linejoin="round"/>
<path d="M315.714 548.171V445.336H335.609V548.171H315.714ZM330.342 548.171V530.471H382.711V548.171H330.342ZM422.641 549.634C416.205 549.634 410.403 548.025 405.234 544.807C400.065 541.589 396.018 537.2 393.093 531.642C390.167 526.083 388.704 519.842 388.704 512.918C388.704 505.896 390.167 499.606 393.093 494.047C396.018 488.489 400.065 484.1 405.234 480.882C410.403 477.664 416.205 476.055 422.641 476.055C427.712 476.055 432.247 477.079 436.246 479.127C440.244 481.175 443.413 484.051 445.754 487.757C448.192 491.366 449.508 495.461 449.703 500.045V525.498C449.508 530.179 448.192 534.323 445.754 537.932C443.413 541.54 440.244 544.417 436.246 546.562C432.247 548.61 427.712 549.634 422.641 549.634ZM426.152 531.934C431.516 531.934 435.855 530.179 439.171 526.668C442.487 523.06 444.145 518.428 444.145 512.771C444.145 509.066 443.365 505.799 441.804 502.97C440.341 500.045 438.245 497.802 435.514 496.242C432.881 494.584 429.76 493.755 426.152 493.755C422.641 493.755 419.521 494.584 416.79 496.242C414.157 497.802 412.06 500.045 410.5 502.97C409.037 505.799 408.306 509.066 408.306 512.771C408.306 516.575 409.037 519.939 410.5 522.865C412.06 525.693 414.157 527.936 416.79 529.594C419.521 531.154 422.641 531.934 426.152 531.934ZM443.121 548.171V529.155L446.193 511.894L443.121 494.925V477.518H462.137V548.171H443.121ZM518.293 549.634C513.222 549.634 508.639 548.561 504.543 546.416C500.447 544.271 497.18 541.345 494.742 537.639C492.304 533.933 490.987 529.789 490.792 525.205V500.045C490.987 495.461 492.304 491.366 494.742 487.757C497.278 484.051 500.593 481.175 504.689 479.127C508.785 477.079 513.32 476.055 518.293 476.055C524.827 476.055 530.678 477.664 535.847 480.882C541.016 484.1 545.063 488.489 547.988 494.047C551.011 499.606 552.523 505.896 552.523 512.918C552.523 519.842 551.011 526.083 547.988 531.642C545.063 537.2 541.016 541.589 535.847 544.807C530.678 548.025 524.827 549.634 518.293 549.634ZM479.09 548.171V442.41H498.253V494.925L495.035 511.894L498.106 529.155V548.171H479.09ZM515.075 531.934C518.586 531.934 521.658 531.154 524.291 529.594C527.021 527.936 529.118 525.693 530.581 522.865C532.141 519.939 532.921 516.575 532.921 512.771C532.921 509.066 532.141 505.799 530.581 502.97C529.118 500.045 527.021 497.802 524.291 496.242C521.56 494.584 518.44 493.755 514.929 493.755C511.418 493.755 508.297 494.584 505.567 496.242C502.934 497.802 500.837 500.045 499.277 502.97C497.814 505.799 497.082 509.066 497.082 512.771C497.082 516.575 497.814 519.939 499.277 522.865C500.837 525.693 502.982 527.936 505.713 529.594C508.444 531.154 511.564 531.934 515.075 531.934ZM584.104 510.577V492.731H606.339C609.167 492.731 611.751 492.146 614.091 490.975C616.432 489.805 618.285 488.099 619.65 485.856C621.015 483.613 621.698 480.882 621.698 477.664C621.698 474.543 621.015 471.861 619.65 469.618C618.285 467.375 616.432 465.669 614.091 464.499C611.751 463.328 609.167 462.743 606.339 462.743H584.104V444.897H609.703C616.237 444.897 622.137 446.213 627.403 448.846C632.669 451.48 636.814 455.283 639.837 460.256C642.958 465.132 644.518 470.935 644.518 477.664C644.518 484.393 642.958 490.244 639.837 495.218C636.814 500.094 632.669 503.897 627.403 506.628C622.137 509.261 616.237 510.577 609.703 510.577H584.104ZM566.55 548.171V444.897H589.516V548.171H566.55ZM707.701 549.927C699.899 549.927 692.683 548.561 686.052 545.831C679.518 543.1 673.764 539.297 668.79 534.421C663.817 529.545 659.965 523.889 657.234 517.452C654.504 510.918 653.138 503.897 653.138 496.388C653.138 488.781 654.504 481.76 657.234 475.323C659.965 468.887 663.768 463.28 668.644 458.501C673.52 453.625 679.225 449.87 685.759 447.237C692.39 444.507 699.607 443.141 707.409 443.141C715.113 443.141 722.232 444.507 728.766 447.237C735.397 449.87 741.151 453.625 746.027 458.501C751 463.28 754.852 468.936 757.583 475.47C760.314 481.906 761.679 488.927 761.679 496.534C761.679 504.043 760.314 511.065 757.583 517.599C754.852 524.035 751.049 529.691 746.173 534.567C741.297 539.346 735.543 543.1 728.912 545.831C722.378 548.561 715.308 549.927 707.701 549.927ZM707.409 529.009C713.552 529.009 718.916 527.643 723.5 524.913C728.181 522.182 731.789 518.379 734.324 513.503C736.86 508.529 738.128 502.824 738.128 496.388C738.128 491.512 737.396 487.123 735.933 483.223C734.471 479.224 732.374 475.811 729.643 472.983C726.913 470.057 723.646 467.863 719.842 466.4C716.137 464.84 711.992 464.06 707.409 464.06C701.265 464.06 695.852 465.425 691.171 468.156C686.588 470.789 683.028 474.543 680.493 479.419C677.957 484.198 676.69 489.854 676.69 496.388C676.69 501.264 677.421 505.701 678.884 509.699C680.347 513.698 682.394 517.16 685.028 520.085C687.758 522.913 691.025 525.108 694.828 526.668C698.632 528.228 702.825 529.009 707.409 529.009ZM761.791 548.171L802.75 444.897H823.522L864.041 548.171H839.759L808.747 462.451H817.085L785.635 548.171H761.791ZM785.05 529.447V510.723H841.368V529.447H785.05Z" fill="#0B409C"/>
</svg>
