<?xml version="1.0" standalone="no"?>
<!DOCTYPE svg PUBLIC "-//W3C//DTD SVG 20010904//EN"
 "http://www.w3.org/TR/2001/REC-SVG-20010904/DTD/svg10.dtd">
<svg version="1.0" xmlns="http://www.w3.org/2000/svg"
 width="2985.000000pt" height="1976.000000pt" viewBox="0 0 2985.000000 1976.000000"
 preserveAspectRatio="xMidYMid meet">

<g transform="translate(0.000000,1976.000000) scale(0.100000,-0.100000)"
fill="#000000" stroke="none">
<path d="M13193 19734 c-24 -24 -25 -30 -20 -90 18 -193 -84 -369 -275 -476
-167 -93 -275 -194 -376 -352 -25 -39 -46 -72 -47 -74 -2 -2 -16 11 -33 28
-54 53 -143 35 -156 -32 -33 -173 -47 -200 -176 -348 -133 -153 -155 -197
-155 -315 0 -79 4 -97 28 -143 59 -113 197 -285 308 -383 39 -34 66 -66 62
-70 -5 -5 -46 -15 -91 -23 -45 -8 -103 -24 -127 -36 -94 -45 -149 -148 -148
-273 0 -90 46 -185 113 -234 69 -51 70 -52 70 -79 0 -25 41 -76 68 -85 9 -3
14 -68 19 -264 l6 -260 -168 -22 c-92 -12 -169 -24 -171 -25 -6 -6 194 -4574
205 -4703 25 -273 104 -502 245 -713 l56 -83 0 -152 0 -151 -51 49 c-123 120
-272 351 -343 532 -89 224 -119 412 -136 833 -13 341 -14 352 -47 384 -37 37
-60 41 -213 29 -74 -5 -137 -8 -139 -7 -2 2 13 81 33 176 54 262 61 324 61
553 0 265 -26 416 -111 653 -58 162 -125 219 -210 179 -48 -24 -60 -57 -73
-207 -19 -227 -70 -396 -199 -664 l-57 -119 -44 59 c-66 88 -252 267 -380 367
-105 81 -116 87 -159 87 -50 0 -81 -18 -101 -57 -17 -34 -14 -61 23 -164 130
-363 98 -708 -138 -1485 -122 -400 -140 -476 -140 -609 -1 -100 2 -115 26
-160 57 -109 83 -118 457 -154 167 -16 304 -31 305 -33 1 -1 17 -43 35 -93 86
-232 240 -509 397 -718 293 -387 666 -692 1134 -927 l117 -59 6 -167 c4 -92 7
-218 7 -281 l0 -113 -105 0 -105 0 0 -57 c0 -121 33 -174 141 -229 76 -38 76
-38 81 -144 4 -79 29 -120 89 -147 25 -11 51 -33 68 -58 16 -24 48 -52 81 -70
48 -26 65 -30 130 -30 93 1 164 33 211 97 16 23 48 52 71 63 62 31 81 63 85
143 6 108 6 108 82 146 108 55 141 108 141 229 l0 57 -110 0 -110 0 0 151 0
151 23 -5 c240 -61 700 -125 1013 -143 l121 -7 7 -111 c3 -61 6 -139 6 -173
l0 -63 -111 0 -112 0 5 -74 c7 -107 36 -152 127 -200 39 -20 75 -45 81 -56 5
-10 10 -46 10 -80 0 -34 5 -71 11 -83 20 -38 61 -76 95 -87 18 -6 36 -20 39
-30 8 -26 80 -89 121 -106 43 -18 165 -18 208 0 41 17 113 80 121 106 3 10 21
24 39 30 18 6 48 26 66 45 31 32 34 41 39 117 4 46 10 88 14 95 4 7 39 29 78
49 98 52 129 103 129 215 l0 59 -115 0 -115 0 0 48 c0 26 3 104 7 173 l6 126
126 7 c279 15 628 60 889 115 l132 28 0 -42 c0 -23 3 -90 7 -148 l6 -107 -111
0 -111 0 6 -72 c9 -123 37 -162 163 -229 l45 -24 6 -80 c3 -45 11 -90 17 -102
16 -29 69 -72 98 -79 13 -3 24 -9 24 -13 0 -18 76 -94 112 -112 92 -47 223
-30 298 37 22 20 42 44 45 55 4 10 25 27 48 37 78 36 106 87 107 198 0 58 9
68 82 103 26 12 63 40 82 61 36 40 42 62 49 163 l4 57 -114 0 -114 0 6 247 c3
137 8 262 11 278 4 28 17 36 157 107 627 316 1103 785 1392 1373 46 94 98 211
116 260 18 50 34 92 35 93 1 2 138 17 304 33 328 32 377 43 426 102 93 110 84
275 -36 672 -213 701 -254 894 -254 1195 0 187 16 291 65 423 40 105 45 146
25 185 -21 40 -44 52 -99 52 -40 0 -54 -7 -134 -69 -150 -116 -277 -236 -365
-341 l-83 -101 -59 123 c-133 278 -179 435 -197 661 -12 156 -20 178 -73 204
-85 40 -149 -15 -209 -177 -139 -377 -152 -760 -42 -1248 l32 -144 -28 6 c-15
3 -85 8 -156 12 l-128 7 -32 -27 c-19 -16 -37 -43 -42 -64 -6 -20 -15 -167
-21 -327 -6 -159 -15 -328 -21 -375 -45 -381 -200 -723 -439 -971 l-91 -94 7
159 6 159 44 60 c142 193 240 462 264 729 13 133 212 4709 206 4715 -2 3 -82
14 -177 27 l-174 22 4 254 4 255 38 33 c25 22 40 45 45 68 5 27 15 39 43 54
159 82 202 326 80 464 -54 62 -103 85 -213 103 -50 8 -92 15 -93 17 -2 1 25
22 60 46 141 100 242 221 284 343 36 102 30 214 -15 311 -17 37 -45 85 -62
106 -16 21 -30 48 -30 60 0 13 34 93 75 179 92 193 108 258 102 406 -7 185
-55 295 -129 295 -49 0 -75 -24 -93 -82 -26 -90 -107 -200 -134 -184 -18 12
-12 68 15 131 60 143 66 165 62 265 -3 81 -8 105 -34 160 -35 74 -143 223
-173 239 -35 19 -77 13 -106 -16 -26 -26 -27 -31 -21 -93 9 -86 -6 -159 -50
-248 -46 -94 -116 -163 -228 -226 -166 -92 -281 -202 -381 -365 l-38 -61 -34
30 c-25 22 -44 30 -72 30 -54 0 -79 -31 -92 -111 -16 -100 -56 -172 -172 -306
-134 -156 -152 -191 -152 -303 0 -76 4 -92 32 -150 46 -94 149 -225 266 -341
117 -115 117 -121 4 -133 -81 -10 -142 -37 -195 -89 -132 -130 -100 -376 63
-477 25 -16 35 -29 35 -47 0 -17 15 -39 43 -67 l42 -41 5 -190 c3 -104 3 -193
0 -197 -3 -4 -63 -3 -135 2 -71 5 -224 12 -338 16 -114 4 -210 11 -213 16 -3
5 -3 89 1 186 l8 177 30 20 c19 12 37 37 47 62 11 31 28 50 65 75 117 77 164
248 105 383 -42 99 -113 147 -250 171 -52 8 -96 17 -97 18 -2 1 29 24 67 50
101 69 211 191 257 283 33 67 38 85 41 168 5 117 -13 181 -80 281 -26 40 -48
78 -48 87 0 8 27 68 59 134 126 256 152 393 109 573 -17 70 -54 147 -76 159
-32 17 -76 13 -99 -8 -12 -11 -31 -50 -43 -86 -26 -79 -112 -181 -130 -155
-16 25 -12 47 34 163 24 62 47 135 51 163 9 69 -10 164 -47 238 -36 72 -119
188 -155 216 -34 27 -76 25 -110 -4 -27 -23 -28 -27 -28 -123 0 -119 -21 -191
-80 -278 -49 -71 -111 -123 -231 -190 -111 -62 -257 -203 -334 -323 l-54 -82
-31 30 c-24 23 -40 30 -72 30 -55 0 -77 -29 -93 -117 -17 -101 -50 -159 -167
-295 -133 -155 -158 -204 -158 -313 1 -69 5 -88 31 -141 47 -93 136 -208 257
-332 73 -73 108 -115 101 -122 -5 -5 -47 -16 -92 -24 -45 -8 -103 -24 -127
-36 -94 -45 -149 -148 -148 -273 0 -90 46 -185 113 -234 69 -51 70 -52 70 -77
0 -23 43 -78 67 -87 8 -3 14 -62 18 -185 l8 -181 -33 -6 c-18 -4 -69 -7 -114
-7 -88 0 -416 -16 -503 -25 l-53 -5 0 68 c0 38 3 129 6 203 l7 134 31 20 c18
12 36 37 46 62 11 31 28 50 65 75 117 77 164 248 105 383 -42 99 -113 147
-250 171 -90 15 -109 20 -99 27 2 1 39 29 82 61 282 212 352 475 190 713 -25
37 -46 76 -45 87 1 10 33 85 72 166 90 189 114 278 108 414 -5 109 -37 230
-70 266 -24 25 -64 35 -97 24 -27 -10 -48 -44 -76 -126 -19 -55 -95 -145 -113
-134 -22 13 -12 67 29 169 76 185 64 320 -41 478 -80 120 -120 159 -164 159
-26 0 -44 -7 -63 -26z m154 -183 c53 -80 76 -145 76 -221 0 -54 -6 -82 -41
-163 -49 -116 -59 -172 -42 -232 l13 -45 -45 -52 c-52 -61 -78 -108 -78 -138
0 -20 4 -18 48 17 26 22 95 74 154 117 135 97 164 134 216 266 16 43 56 -104
56 -205 -1 -104 -20 -167 -106 -350 -47 -98 -73 -166 -76 -197 -4 -45 -1 -54
46 -123 67 -99 86 -158 80 -249 -9 -127 -98 -258 -259 -377 -64 -47 -71 -50
-100 -40 -17 6 -60 14 -95 17 -35 4 -64 10 -64 13 0 3 28 24 61 46 82 54 182
162 221 238 28 54 32 72 32 142 1 68 -3 89 -26 135 -15 30 -49 77 -75 105
l-48 50 -6 -105 c-7 -116 -29 -194 -85 -300 -48 -91 -130 -196 -202 -257 -61
-52 -63 -53 -127 -53 -36 0 -65 2 -65 4 0 2 24 29 54 60 64 65 121 174 137
261 6 33 9 111 6 175 -4 100 -9 129 -42 224 l-38 109 16 51 c21 65 74 154 146
245 118 148 161 245 168 381 2 47 0 110 -5 140 -8 51 -9 53 -16 25 -24 -101
-71 -229 -103 -285 -40 -67 -152 -185 -288 -301 -121 -104 -234 -260 -284
-391 -10 -26 -8 -26 67 20 103 62 169 131 216 225 21 43 39 77 40 77 9 0 -17
-127 -35 -176 -18 -48 -42 -79 -141 -180 -155 -160 -181 -211 -176 -344 2 -49
2 -90 0 -90 -14 0 -55 124 -60 176 -4 54 -7 62 -19 52 -30 -25 -56 -94 -62
-168 l-7 -75 -13 45 c-15 51 -10 161 11 224 7 22 36 66 66 97 l53 58 -15 65
c-9 36 -33 104 -55 152 l-39 87 -7 -49 c-10 -82 -25 -134 -68 -249 -37 -98
-42 -119 -42 -195 0 -75 4 -93 33 -154 44 -94 111 -185 177 -241 60 -52 67
-65 33 -65 -13 -1 -41 -7 -62 -15 l-39 -14 -107 107 c-177 177 -272 322 -273
416 -1 73 27 126 128 241 140 160 178 228 200 358 5 31 9 36 20 27 25 -20 55
-95 64 -156 l8 -59 13 35 c32 83 115 235 168 307 81 108 173 189 289 253 131
73 226 166 276 270 44 92 56 143 57 240 l1 75 25 -30 c13 -16 41 -54 61 -84z
m1920 6 c94 -141 103 -240 37 -394 -42 -96 -55 -188 -35 -244 10 -30 8 -34
-38 -84 -49 -54 -81 -109 -81 -140 0 -15 5 -13 33 8 17 15 84 65 148 111 157
115 203 168 235 271 l12 40 12 -30 c67 -172 51 -302 -71 -557 -41 -84 -74
-167 -76 -191 -4 -38 0 -50 46 -117 66 -96 96 -189 86 -266 -15 -121 -115
-259 -268 -368 -67 -48 -69 -48 -110 -37 -23 6 -67 15 -97 19 l-54 7 65 46
c89 64 190 175 225 245 22 44 30 77 32 131 4 64 1 80 -26 135 -29 63 -104 158
-124 158 -7 0 -9 -15 -5 -40 23 -171 -97 -439 -268 -599 l-77 -71 -69 0 c-38
0 -69 2 -69 5 0 2 20 23 44 46 90 82 139 185 156 327 14 116 1 217 -46 354
l-35 102 22 60 c25 69 83 163 157 256 63 77 117 178 137 256 15 58 19 211 6
268 -5 25 -8 19 -25 -45 -54 -214 -101 -286 -322 -489 -200 -185 -261 -262
-330 -418 l-23 -53 37 22 c152 92 197 136 261 257 44 84 48 81 27 -19 -23
-108 -57 -161 -175 -278 -142 -140 -166 -186 -166 -323 0 -53 -3 -94 -7 -92
-14 9 -49 119 -55 175 -5 46 -9 57 -19 49 -26 -22 -57 -107 -63 -175 l-7 -70
-13 60 c-25 114 4 226 81 311 l51 55 -16 64 c-9 35 -33 104 -54 152 l-37 87
-13 -82 c-7 -45 -33 -137 -59 -205 -51 -137 -62 -204 -45 -274 29 -114 115
-248 213 -329 26 -21 47 -44 47 -49 1 -6 -27 -16 -60 -22 l-62 -12 -59 52
c-116 102 -273 303 -303 388 -20 57 -18 115 5 167 11 24 61 91 111 149 136
158 181 236 195 342 6 43 9 49 21 39 25 -20 54 -87 65 -150 l11 -61 22 54 c82
200 201 369 327 464 34 25 99 67 146 93 190 106 302 281 306 479 1 78 2 81 19
65 10 -9 39 -47 64 -85z m1868 41 c60 -80 89 -139 105 -211 16 -69 6 -122 -40
-228 -45 -101 -56 -168 -38 -222 l14 -44 -34 -39 c-51 -59 -92 -125 -92 -150
0 -19 25 -4 161 98 172 129 217 178 246 266 l17 53 14 -26 c7 -15 20 -59 29
-98 28 -134 3 -242 -108 -477 -83 -176 -87 -204 -34 -273 106 -138 125 -271
59 -405 -32 -66 -145 -188 -232 -249 -63 -45 -63 -45 -108 -33 -24 7 -70 15
-101 19 l-58 6 65 46 c89 64 191 174 226 245 25 51 29 71 29 144 0 74 -4 91
-28 135 -30 55 -103 145 -117 145 -5 0 -9 -37 -9 -82 -1 -207 -125 -448 -304
-589 -45 -36 -54 -39 -113 -39 -35 0 -64 2 -64 5 0 2 20 23 44 46 164 150 205
411 110 680 l-36 100 17 52 c23 73 65 143 146 245 80 102 132 195 154 278 15
59 19 212 6 269 -6 26 -10 17 -31 -65 -13 -52 -44 -135 -68 -185 -41 -81 -57
-101 -171 -210 -287 -274 -343 -342 -411 -499 l-20 -48 38 23 c152 92 197 136
261 257 l41 77 -6 -45 c-19 -140 -50 -196 -183 -328 -143 -142 -166 -187 -166
-325 0 -82 -2 -95 -13 -80 -20 28 -52 141 -52 185 0 34 -2 39 -14 28 -28 -22
-58 -100 -65 -167 l-7 -68 -13 45 c-29 100 5 232 81 316 l51 55 -16 64 c-9 35
-33 103 -54 151 l-38 88 -13 -83 c-7 -48 -32 -134 -59 -204 -42 -108 -47 -131
-47 -202 0 -64 5 -92 26 -142 38 -89 93 -168 171 -243 37 -36 67 -68 67 -71 0
-3 -25 -11 -55 -18 -55 -12 -56 -12 -93 18 -99 78 -273 289 -318 386 -30 64
-32 143 -4 200 11 23 59 86 107 140 135 155 180 234 199 355 l6 44 24 -29 c28
-35 54 -106 54 -146 0 -52 16 -38 48 40 87 213 249 403 426 501 220 122 335
292 336 498 0 45 2 82 4 82 2 0 25 -28 51 -62z m-1996 -569 c-17 -82 -71 -185
-148 -282 -74 -92 -121 -169 -153 -246 -10 -25 -16 -33 -13 -18 3 15 10 71 15
124 l9 96 89 86 c92 88 158 178 188 257 22 58 27 51 13 -17z m1887 -11 c-23
-89 -66 -169 -147 -272 -78 -100 -111 -152 -146 -234 -14 -34 -22 -45 -18 -27
3 17 9 72 14 124 l9 94 90 86 c92 88 158 178 188 257 24 62 29 48 10 -28z
m-3815 -15 c-17 -64 -61 -149 -116 -218 -67 -87 -148 -212 -174 -270 -12 -27
-20 -39 -17 -25 3 14 9 67 12 118 l7 92 71 67 c95 89 155 165 191 241 32 69
44 67 26 -5z m1547 -410 c-45 -102 -122 -198 -188 -233 -20 -11 -21 -10 -9 12
35 67 89 140 147 201 36 37 67 67 68 67 2 0 -7 -21 -18 -47z m1889 0 c-52
-113 -120 -197 -187 -233 -23 -12 -23 -12 5 36 39 69 95 143 150 197 25 26 48
47 50 47 2 0 -6 -21 -18 -47z m-3797 32 c0 -12 -54 -112 -82 -153 -29 -42
-126 -127 -135 -118 -8 8 100 167 151 224 42 46 66 63 66 47z m91 -345 c33
-91 34 -100 33 -230 0 -113 -4 -145 -23 -195 -31 -85 -81 -156 -152 -215 -58
-48 -64 -51 -111 -48 l-51 3 -38 129 c-46 153 -50 226 -18 312 18 47 43 80
143 183 91 95 128 140 146 183 l25 56 6 -41 c3 -23 21 -85 40 -137z m1916 20
c31 -89 37 -122 41 -215 2 -64 -1 -134 -7 -166 -24 -116 -98 -230 -195 -301
-48 -34 -131 -41 -140 -10 -2 9 -19 64 -37 122 -25 81 -33 124 -34 185 0 120
28 171 165 307 77 76 116 124 137 165 20 41 29 52 31 38 2 -11 19 -67 39 -125z
m1890 0 c30 -88 36 -123 40 -215 10 -211 -45 -341 -190 -457 -41 -32 -56 -38
-97 -38 l-49 0 -25 83 c-56 185 -59 199 -54 267 7 99 47 165 172 288 75 72
112 117 132 159 21 41 30 52 32 38 2 -11 19 -67 39 -125z m-4308 35 c11 -36
21 -73 21 -82 0 -8 -18 -36 -41 -60 -51 -55 -76 -110 -87 -193 l-8 -65 -13 45
c-18 63 -9 117 43 257 25 67 46 131 46 143 0 39 17 19 39 -45z m1937 -52 c6
-40 3 -46 -36 -90 -52 -58 -69 -96 -85 -188 l-12 -70 -13 58 c-15 65 -12 78
66 301 l39 108 17 -38 c9 -22 20 -58 24 -81z m1890 -4 c6 -35 3 -42 -40 -91
-49 -57 -73 -112 -83 -198 l-7 -55 -12 40 c-20 63 -16 93 22 200 19 55 45 129
56 165 l21 65 18 -44 c11 -24 22 -60 25 -82z m-2875 -152 c32 -72 31 -154 -3
-228 -51 -113 -277 -309 -355 -309 l-32 0 67 68 c145 145 252 364 252 516 l0
49 24 -22 c13 -13 35 -46 47 -74z m1919 7 c62 -125 21 -256 -119 -392 -76 -74
-196 -152 -232 -152 -16 0 -29 2 -29 5 0 3 18 21 40 41 94 85 197 243 239 367
11 31 25 94 32 138 l12 82 18 -24 c10 -13 28 -43 39 -65z m1910 -55 c25 -104
-18 -215 -127 -323 -81 -82 -206 -166 -245 -166 -15 0 -28 1 -28 3 0 1 28 32
63 67 144 148 228 318 252 514 l7 49 33 -47 c18 -26 39 -70 45 -97z m-908
-269 c19 -36 56 -100 82 -142 25 -43 42 -78 37 -78 -16 0 -147 108 -174 143
-22 29 -27 46 -27 94 0 32 5 76 11 98 l12 40 11 -45 c7 -25 28 -75 48 -110z
m-3852 82 c10 -27 50 -103 90 -171 40 -67 70 -124 67 -127 -7 -7 -121 81 -161
126 -33 37 -36 45 -36 104 0 68 9 130 18 121 3 -3 13 -27 22 -53z m1953 -67
c14 -27 51 -90 81 -140 30 -49 52 -92 50 -94 -7 -8 -89 55 -147 113 l-59 58 4
82 c5 101 17 125 33 70 6 -21 23 -61 38 -89z m-1198 -335 c46 -9 85 -33 74
-44 -2 -3 -54 0 -114 6 -106 10 -623 5 -710 -8 l-40 -5 27 25 c20 18 44 26 85
31 32 3 65 8 73 10 32 8 558 -4 605 -15z m1910 0 c46 -9 85 -33 74 -44 -2 -3
-54 0 -114 6 -106 10 -623 5 -710 -8 l-40 -5 27 25 c20 18 44 26 85 31 32 3
65 8 73 10 32 8 558 -4 605 -15z m1900 0 c27 -5 59 -19 70 -30 20 -20 20 -20
-45 -13 -83 10 -621 10 -723 1 -75 -8 -77 -7 -67 11 12 24 31 30 118 41 89 11
584 4 647 -10z m-3963 -90 c184 -10 384 -33 453 -51 24 -7 56 -28 81 -53 85
-85 80 -211 -12 -296 l-46 -43 -62 6 c-33 4 -104 12 -156 19 -60 8 -224 13
-450 13 -226 0 -390 -5 -450 -13 -52 -7 -123 -15 -157 -19 l-61 -6 -47 44
c-60 57 -80 123 -63 202 13 64 73 130 133 146 91 24 387 53 615 59 25 1 125
-3 222 -8z m1910 0 c184 -10 384 -33 453 -51 24 -7 56 -28 81 -53 81 -81 79
-207 -3 -289 -47 -48 -67 -52 -167 -39 -189 27 -376 34 -661 28 -159 -3 -321
-11 -360 -16 -38 -5 -100 -12 -137 -16 l-66 -7 -47 44 c-60 57 -80 123 -63
202 13 64 73 130 133 146 91 24 387 53 615 59 25 1 125 -3 222 -8z m2063 -11
c218 -20 307 -37 349 -67 94 -65 112 -202 39 -300 -47 -63 -67 -67 -237 -46
-215 27 -797 27 -1000 1 -76 -10 -149 -16 -162 -13 -94 24 -152 170 -109 274
37 87 76 107 258 133 266 38 577 44 862 18z m-3675 -469 c52 -7 99 -16 103
-20 13 -11 -3 -58 -21 -62 -10 -2 -78 2 -152 9 -79 8 -256 14 -425 14 -169 0
-346 -6 -425 -14 -74 -7 -142 -11 -152 -9 -21 5 -34 52 -17 63 6 4 62 12 123
18 61 6 125 13 141 15 67 9 736 -2 825 -14z m1925 -2 l90 -13 -2 -29 c-1 -16
-4 -31 -7 -33 -8 -8 -45 -7 -196 6 -185 17 -645 15 -820 -2 -141 -14 -164 -11
-175 24 -10 31 3 35 129 48 61 6 125 13 141 15 69 9 754 -4 840 -16z m1905 0
c81 -12 85 -14 88 -40 5 -39 -19 -47 -108 -37 -161 19 -494 27 -697 18 -115
-5 -242 -13 -283 -18 -85 -9 -110 -2 -110 34 0 28 6 31 130 44 52 6 111 13
130 15 82 9 769 -4 850 -16z m-3916 -127 c48 -6 89 -11 90 -13 4 -6 -10 -437
-14 -441 -3 -3 -49 -7 -102 -11 l-98 -7 0 116 c0 136 12 177 58 193 17 6 33 8
36 5 3 -4 6 1 6 10 0 38 -85 62 -122 33 -31 -23 -38 -65 -38 -215 l0 -148 -87
-7 c-49 -4 -103 -9 -120 -12 l-33 -6 0 145 c0 137 1 147 23 172 13 16 34 28
50 28 34 2 34 10 1 36 -33 26 -75 27 -105 2 -23 -19 -24 -25 -29 -203 l-5
-183 -109 -12 c-60 -7 -113 -10 -118 -7 -4 3 -8 77 -8 165 0 146 2 161 20 179
18 18 39 25 63 21 16 -2 6 29 -15 43 -31 22 -80 20 -106 -4 -21 -20 -22 -28
-22 -220 l0 -200 -24 0 c-13 0 -37 -3 -54 -6 l-30 -6 -6 163 c-3 90 -7 212 -9
271 l-2 107 40 6 c160 24 669 27 869 6z m1910 0 c48 -6 89 -11 90 -13 1 -2 -1
-91 -4 -198 l-5 -195 -100 0 -100 0 -3 75 c-4 101 10 148 51 165 18 7 35 11
39 9 5 -3 8 2 8 10 0 22 -40 46 -75 46 -67 -1 -85 -43 -85 -202 l0 -108 -28 0
c-16 0 -70 3 -120 6 l-92 7 0 93 c0 82 3 96 23 119 13 16 34 28 50 28 34 2 34
10 1 36 -36 28 -79 27 -109 -4 -24 -23 -25 -30 -25 -149 l0 -124 -72 -7 c-40
-4 -93 -5 -118 -3 l-45 3 -3 90 c-2 50 0 100 3 113 6 23 61 55 77 46 19 -12 6
27 -14 40 -31 22 -80 20 -106 -4 -21 -19 -22 -30 -22 -155 l0 -135 -55 0 c-53
0 -54 0 -59 33 -3 17 -7 107 -8 199 l-3 168 40 5 c160 24 669 27 869 6z m1766
9 c91 -5 180 -12 198 -15 l32 -6 -6 -262 c-4 -144 -9 -265 -13 -269 -3 -3 -48
-2 -98 4 l-93 11 0 162 c0 158 1 162 24 184 14 13 36 24 50 25 33 1 33 9 0 35
-36 28 -79 27 -109 -4 -25 -24 -25 -26 -25 -211 l0 -187 -47 6 c-27 4 -80 9
-119 13 l-71 6 -6 134 c-4 80 -3 144 3 159 9 25 66 58 82 49 19 -12 6 27 -14
40 -31 22 -84 20 -108 -4 -24 -24 -23 -13 -20 -214 l2 -159 -69 7 c-182 18
-170 14 -177 55 -3 20 -6 77 -6 128 0 81 3 95 23 118 13 16 34 28 50 28 34 2
34 10 1 36 -37 29 -79 27 -111 -5 l-26 -26 6 -154 6 -154 -54 0 c-30 0 -56 3
-58 8 -3 4 -8 105 -12 224 l-8 217 34 6 c125 21 500 29 739 15z m-1435 -541
c577 -21 1179 -71 1790 -148 l210 -26 3 -55 c3 -61 -156 -3751 -162 -3757 -2
-2 -105 115 -230 261 -124 146 -231 268 -236 271 -6 3 -64 -40 -131 -97 -66
-57 -124 -104 -128 -106 -7 -2 -334 371 -353 403 -5 8 34 47 106 109 63 53
119 103 126 111 10 12 -36 70 -260 332 -149 175 -274 319 -278 321 -5 1 -64
-45 -131 -103 -68 -58 -127 -105 -131 -103 -4 2 -78 86 -165 188 -87 102 -166
194 -176 205 -17 20 -14 23 112 129 114 96 128 111 116 125 -8 9 -132 154
-276 324 -144 169 -265 307 -267 307 -3 0 -59 -46 -125 -102 -66 -57 -124
-104 -128 -106 -8 -2 -361 401 -361 412 0 2 54 50 120 105 65 56 122 106 125
111 5 8 -527 641 -544 648 -4 1 -62 -45 -130 -103 -67 -58 -126 -105 -129
-105 -8 0 -355 406 -360 421 -2 5 16 9 40 9 24 0 126 5 228 11 465 27 1145 30
1725 8z m-1890 -306 c131 -153 241 -278 246 -278 4 0 62 47 129 104 87 74 126
102 135 95 8 -5 98 -108 201 -229 103 -121 195 -229 205 -240 17 -20 15 -22
-111 -130 -109 -92 -127 -111 -117 -124 23 -30 430 -506 452 -529 l22 -23 123
105 c68 58 127 106 132 106 7 0 428 -485 428 -494 0 -2 -56 -52 -125 -111 -69
-59 -125 -111 -123 -115 6 -17 473 -559 480 -557 4 1 61 48 128 105 66 56 124
102 128 102 6 0 348 -392 413 -475 16 -20 13 -24 -112 -130 -111 -94 -126
-111 -115 -125 119 -140 443 -520 456 -534 17 -18 22 -15 143 89 69 59 128
107 131 106 7 0 426 -487 426 -494 0 -2 -56 -53 -125 -111 -69 -59 -125 -109
-125 -112 0 -3 63 -78 141 -167 l140 -162 -6 -92 c-22 -353 -155 -661 -388
-896 -150 -151 -314 -262 -527 -358 -104 -46 -307 -119 -334 -119 -7 0 -116
120 -241 268 -126 147 -231 271 -235 275 -4 5 -41 -20 -81 -55 -41 -35 -99
-85 -130 -111 l-56 -47 -209 245 c-115 135 -210 248 -212 253 -1 5 54 57 123
116 124 107 125 108 108 130 -10 12 -119 140 -242 284 l-224 262 -56 -47 c-31
-26 -89 -76 -129 -110 l-73 -63 -215 251 c-119 138 -214 252 -212 254 1 1 57
49 123 105 66 57 121 106 123 111 2 4 -105 134 -237 288 l-240 281 -108 -91
c-59 -51 -117 -101 -129 -111 -21 -19 -22 -18 -232 228 -117 136 -212 251
-212 254 0 4 57 56 126 115 l125 107 -19 22 c-10 11 -115 134 -232 271 -117
138 -218 256 -224 262 -9 10 -40 -12 -140 -98 -104 -88 -131 -108 -141 -97
-78 87 -416 490 -414 492 2 2 58 50 124 106 66 57 121 106 123 110 2 4 -69 91
-156 193 l-159 185 -6 108 c-22 391 -49 1165 -41 1173 17 16 749 99 1224 139
58 5 108 10 111 11 4 0 113 -124 244 -276z m-1427 -1434 l82 -86 -80 -68 c-45
-37 -82 -66 -84 -64 -2 2 -7 76 -11 164 -4 91 -3 156 2 150 5 -5 46 -49 91
-96z m159 -701 l220 -256 127 109 c70 60 129 109 131 109 3 0 324 -375 343
-401 11 -16 -1 -30 -113 -126 -69 -59 -124 -111 -123 -115 2 -4 126 -151 277
-327 l274 -319 124 106 c68 59 128 107 132 107 7 0 77 -80 312 -356 l48 -56
-129 -110 -129 -111 275 -321 c152 -176 279 -321 283 -321 4 0 63 47 130 105
67 58 124 105 126 105 4 0 339 -391 348 -407 5 -7 -34 -47 -100 -104 -60 -51
-117 -100 -127 -110 -18 -17 -11 -27 254 -336 150 -175 276 -319 281 -321 5
-2 63 43 130 100 66 57 124 103 129 103 15 0 382 -427 374 -435 -23 -23 -357
-80 -616 -107 -133 -13 -263 -17 -558 -17 -416 0 -587 11 -883 60 -947 155
-1506 588 -1636 1268 -27 139 -26 122 -81 1421 -27 638 -52 1201 -55 1250 -4
57 -3 86 3 80 6 -5 109 -125 229 -267z m-964 -326 c79 -237 103 -402 94 -642
-3 -85 -15 -211 -27 -279 -22 -133 -87 -411 -98 -423 -4 -4 -140 -19 -302 -32
-407 -35 -385 -31 -435 -77 -87 -81 -137 -245 -155 -519 -32 -479 -41 -545
-88 -640 -35 -69 -70 -95 -127 -93 -102 4 -140 54 -139 183 1 101 25 204 119
510 166 538 217 773 231 1065 10 204 -25 445 -85 580 -11 26 -15 43 -8 39 46
-27 219 -176 302 -259 120 -120 191 -213 244 -318 21 -43 41 -75 44 -70 3 4
17 40 32 78 15 39 61 142 102 229 160 341 196 465 219 749 8 105 20 92 77 -81z
m6858 28 c18 -219 58 -362 171 -605 66 -141 156 -347 172 -389 5 -15 15 -3 45
58 88 174 273 373 523 560 l36 27 -28 -73 c-65 -166 -92 -413 -71 -642 24
-254 77 -488 211 -926 138 -451 161 -575 122 -662 -24 -55 -64 -80 -129 -81
-115 -1 -171 128 -193 449 -6 82 -15 214 -20 294 -19 265 -69 430 -155 509
-49 46 -31 42 -430 76 -165 14 -303 29 -306 33 -10 11 -76 293 -100 427 -33
180 -33 504 -1 665 35 171 121 425 138 407 3 -2 9 -60 15 -127z m-6476 -1432
c2 -7 9 -139 15 -293 16 -422 37 -575 105 -780 161 -482 498 -850 1010 -1100
365 -178 749 -275 1300 -327 190 -18 960 -18 1150 0 550 52 935 148 1300 327
603 295 972 763 1076 1364 20 118 33 296 45 624 5 147 10 190 21 194 7 3 233
-13 501 -36 268 -23 494 -41 502 -41 41 0 41 -2 25 -336 -20 -428 -36 -553
-105 -819 -170 -657 -553 -1209 -1120 -1615 -692 -495 -1625 -740 -2820 -740
-1440 0 -2501 356 -3212 1076 -154 156 -230 249 -343 419 -249 373 -400 780
-460 1241 -22 166 -48 756 -34 765 6 3 79 12 162 19 84 6 292 24 462 40 367
33 414 35 420 18z m5568 -200 l-8 -128 -70 86 c-38 47 -71 89 -73 94 -2 4 32
38 75 76 l78 68 3 -35 c1 -18 -1 -91 -5 -161z m1647 -140 c11 -51 24 -158 30
-238 5 -80 14 -212 20 -294 13 -189 32 -283 75 -371 18 -38 33 -70 32 -71 -1
-1 -63 -7 -137 -13 -74 -6 -161 -14 -192 -17 l-57 -6 19 63 c63 205 96 451
115 849 8 168 15 307 16 310 0 3 14 -23 31 -57 16 -34 38 -104 48 -155z
m-8324 -104 c18 -388 46 -598 113 -838 l19 -68 -57 6 c-31 3 -117 11 -191 17
-74 6 -136 12 -137 13 -2 2 10 27 26 57 54 99 75 222 91 519 13 239 25 341 51
444 20 79 56 162 66 153 3 -3 11 -140 19 -303z m1964 -1298 c3 -72 5 -133 3
-135 -1 -2 -20 10 -42 25 l-41 29 0 139 0 138 38 -33 37 -33 5 -130z m4367 47
l-7 -138 -32 -27 c-18 -16 -36 -28 -40 -28 -4 0 -8 57 -8 128 l0 127 42 37
c24 21 45 38 47 38 2 0 1 -62 -2 -137z m-4220 -33 l53 -35 0 -123 0 -123 -22
12 c-13 7 -40 23 -60 37 l-38 25 0 124 c0 69 3 123 8 121 4 -1 31 -19 59 -38z
m4063 -92 l0 -123 -43 -26 c-23 -15 -52 -32 -64 -38 l-23 -12 0 120 0 120 58
40 c31 22 60 40 65 40 4 1 7 -54 7 -121z m-3879 -20 l59 -33 0 -112 c0 -71 -4
-113 -10 -113 -6 0 -32 11 -59 24 -42 22 -49 30 -54 63 -8 48 -9 203 -1 203 3
0 32 -15 65 -32z m3687 -163 c-3 -49 -4 -51 -53 -77 -27 -15 -53 -28 -57 -28
-5 0 -8 51 -8 114 l0 115 53 28 52 28 8 -65 c4 -36 6 -87 5 -115z m-3513 78
l35 -17 0 -113 0 -113 -36 15 c-20 8 -38 15 -40 15 -2 0 -4 52 -4 115 0 63 2
115 5 115 2 0 20 -8 40 -17z m3315 -72 c0 -43 3 -93 6 -110 6 -29 4 -32 -31
-47 -20 -8 -40 -12 -43 -9 -4 3 -8 53 -10 110 l-4 104 33 15 c19 8 37 15 42
15 4 1 7 -34 7 -78z m-3094 -12 c183 -64 489 -126 759 -154 88 -9 179 -19 203
-21 l42 -5 0 -106 0 -105 -87 6 c-298 23 -660 85 -871 149 -62 19 -115 37
-118 40 -5 5 6 217 11 217 1 0 28 -9 61 -21z m2904 -98 l0 -108 -107 -32
c-216 -64 -584 -126 -870 -147 l-93 -7 0 106 0 106 53 5 c28 3 104 10 167 16
247 24 604 94 760 149 93 33 90 37 90 -88z m-1712 -96 c1 -1 5 -48 9 -104 l6
-101 -40 0 -40 0 -6 101 c-4 56 -4 106 -1 110 4 7 62 2 72 -6z m527 -104 l-8
-101 -33 0 -34 0 0 104 0 105 33 3 c17 2 36 0 40 -3 5 -4 6 -52 2 -108z m-335
4 l0 -105 -55 0 -55 0 0 105 0 105 55 0 55 0 0 -105z m190 0 l0 -105 -60 0
-60 0 0 105 0 105 60 0 60 0 0 -105z m-2256 -1258 l9 -217 -28 -40 c-15 -22
-31 -40 -35 -40 -8 0 -20 236 -20 413 l0 127 33 -13 32 -13 9 -217z m4270 1
c-3 -128 -7 -248 -10 -266 l-5 -33 -30 40 c-29 40 -29 43 -29 173 0 73 3 170
7 215 5 77 8 83 32 92 14 5 29 10 33 10 4 1 5 -104 2 -231z m-4147 166 l43
-17 0 -142 0 -142 -43 -17 c-23 -9 -46 -16 -50 -16 -4 0 -7 79 -7 175 0 96 3
175 7 175 4 0 27 -7 50 -16z m4023 -159 c0 -96 -3 -175 -7 -175 -4 0 -27 7
-50 16 l-43 17 0 143 0 142 43 15 c23 9 45 16 50 16 4 1 7 -78 7 -174z m-3862
106 l42 -12 0 -139 0 -138 -50 21 -50 21 0 134 c0 73 3 131 8 129 4 -3 26 -10
50 -16z m3696 -43 c3 -29 6 -86 6 -126 l0 -73 -46 -20 c-26 -11 -49 -18 -51
-15 -2 2 -5 61 -6 131 l-2 128 35 13 c54 19 57 18 64 -38z m-3555 1 l31 -11
-1 -76 c-1 -43 -4 -124 -8 -181 l-6 -103 -32 44 -31 44 5 147 c3 81 7 147 8
147 1 0 16 -5 34 -11z m3391 -149 c0 -139 -2 -153 -22 -185 -13 -19 -27 -33
-33 -32 -6 2 -12 75 -15 177 -5 166 -4 173 15 181 55 22 55 21 55 -141z
m-1900 -195 c0 -142 -1 -146 -27 -187 l-28 -42 -6 30 c-4 16 -7 100 -8 187
l-1 157 35 0 35 0 0 -145z m160 42 l0 -102 -32 -11 c-18 -6 -41 -14 -50 -19
-17 -7 -18 2 -18 114 l0 121 50 0 50 0 0 -103z m160 -18 c0 -112 -1 -121 -17
-114 -10 5 -33 13 -50 19 l-33 11 0 102 0 103 50 0 50 0 0 -121z m120 -46 c0
-160 -9 -223 -24 -176 -4 11 -15 28 -26 38 -18 16 -20 31 -20 146 0 70 3 134
6 143 4 10 18 16 35 16 l29 0 0 -167z m-2105 48 c22 -10 53 -32 69 -49 34 -36
33 -63 -7 -161 l-25 -61 21 -12 c19 -10 28 -3 91 66 39 41 84 81 100 86 16 6
65 14 108 17 77 6 78 6 78 -18 -1 -36 -20 -55 -96 -97 -92 -50 -114 -84 -114
-174 0 -60 -3 -72 -25 -94 -27 -27 -45 -24 -45 6 0 27 -56 87 -104 112 -29 16
-59 22 -106 22 -99 0 -170 -44 -205 -127 -13 -33 -18 -36 -35 -27 -30 16 -40
43 -40 113 0 85 -24 120 -114 169 -76 42 -95 61 -96 97 0 24 0 24 86 17 47 -3
96 -11 107 -17 12 -6 54 -44 93 -86 63 -68 73 -75 91 -65 l21 12 -23 57 c-13
32 -27 75 -30 96 -7 33 -4 42 21 69 29 31 96 68 124 68 8 0 33 -9 55 -19z
m3841 -12 c20 -12 44 -35 54 -51 16 -27 17 -34 3 -86 -8 -31 -21 -69 -30 -85
-11 -22 -12 -32 -2 -43 20 -24 33 -16 93 55 71 86 101 101 208 104 l83 2 -3
-25 c-4 -33 -20 -48 -100 -91 -82 -43 -104 -77 -108 -165 -3 -79 -10 -101 -36
-115 -11 -6 -21 -9 -22 -7 -1 2 -11 24 -23 50 -60 127 -257 154 -362 49 -22
-22 -42 -53 -46 -70 -8 -36 -14 -38 -45 -13 -18 14 -23 31 -27 87 -2 39 -6 79
-8 91 -7 31 -54 74 -110 99 -58 25 -80 48 -91 89 l-7 29 88 -7 c48 -3 102 -13
120 -21 17 -9 58 -47 90 -85 58 -71 72 -79 92 -59 9 9 7 24 -8 61 -10 27 -23
68 -29 91 -8 37 -6 45 15 73 13 17 43 41 67 53 50 26 91 23 144 -10z m-1911
-194 c44 -25 75 -63 75 -90 0 -9 -11 -51 -25 -92 -24 -70 -25 -78 -10 -92 15
-15 19 -13 47 19 120 138 141 150 261 150 58 0 67 -2 67 -18 0 -31 -30 -62
-88 -91 -31 -16 -70 -43 -86 -60 -27 -28 -30 -40 -35 -115 -9 -124 -40 -151
-83 -69 -17 33 -39 57 -73 78 -43 26 -58 30 -124 30 -65 0 -83 -4 -123 -27
-46 -28 -88 -81 -88 -112 0 -24 -36 -20 -54 6 -11 15 -16 45 -16 88 0 93 -20
125 -106 172 -74 40 -104 69 -104 99 0 17 8 19 68 19 121 0 139 -10 259 -149
26 -30 31 -32 50 -21 20 13 20 14 2 54 -54 123 -47 168 30 218 56 35 101 36
156 3z m-1911 -229 c81 -34 102 -122 43 -181 -18 -18 -52 -38 -75 -44 -90 -25
-192 38 -192 117 0 94 119 152 224 108z m3814 0 c135 -70 84 -230 -73 -230
-61 0 -109 24 -135 67 -52 85 16 176 133 177 26 0 60 -6 75 -14z m-1889 -204
c63 -47 80 -111 43 -161 -78 -107 -282 -63 -282 60 0 46 42 100 92 117 43 14
117 6 147 -16z"/>
<path d="M13557 18825 c-33 -41 -107 -92 -239 -165 -127 -70 -189 -125 -228
-203 -54 -111 -50 -276 12 -418 l23 -54 6 131 c10 183 20 205 166 342 135 125
243 260 273 339 11 31 19 57 17 59 -1 2 -15 -12 -30 -31z m-124 -177 c-26 -35
-72 -85 -102 -113 -184 -166 -210 -204 -227 -320 l-7 -50 -9 59 c-18 115 18
228 94 303 36 36 266 179 291 182 5 1 -13 -27 -40 -61z"/>
<path d="M15449 18800 c-34 -34 -95 -76 -155 -109 -260 -142 -317 -217 -316
-416 0 -99 20 -190 56 -254 11 -21 14 -10 20 97 11 193 16 201 227 397 82 76
190 220 213 286 10 27 17 51 15 52 -2 1 -29 -23 -60 -53z m-81 -137 c-40 -56
-120 -138 -212 -217 -79 -69 -126 -152 -126 -223 0 -24 -4 -43 -10 -43 -6 0
-10 37 -10 90 0 145 48 238 157 308 44 28 224 131 231 132 2 0 -12 -21 -30
-47z"/>
<path d="M17344 18804 c-30 -30 -95 -76 -155 -110 -210 -117 -262 -163 -301
-264 -38 -100 -27 -275 26 -390 l21 -45 7 120 c13 191 37 237 186 358 79 64
204 220 244 304 16 35 28 66 26 70 -1 5 -26 -15 -54 -43z m-86 -140 c-40 -57
-109 -127 -208 -215 -84 -73 -121 -134 -128 -211 -8 -83 -22 -63 -22 31 0 143
43 231 148 303 39 27 231 137 240 138 2 0 -12 -21 -30 -46z"/>
<path d="M13167 15764 c-12 -12 -7 -75 13 -174 11 -52 20 -97 20 -100 0 -3
-24 38 -53 90 -77 140 -94 162 -126 158 -20 -2 -27 -9 -29 -31 -3 -22 35 -159
65 -237 3 -8 -31 33 -76 92 -83 108 -110 130 -136 108 -25 -21 -17 -53 46
-181 l60 -123 -106 103 c-88 85 -111 102 -133 99 -21 -2 -28 -9 -30 -32 -3
-27 33 -88 148 -249 8 -11 -26 10 -75 46 -124 92 -168 115 -189 98 -32 -27
-18 -56 75 -155 l91 -96 -109 55 c-113 58 -131 63 -151 43 -32 -32 -8 -63 138
-174 41 -32 66 -54 55 -50 -100 38 -226 75 -239 70 -8 -3 -18 -15 -22 -26 -9
-29 22 -56 146 -129 58 -33 94 -58 80 -55 -221 52 -250 52 -250 1 0 -18 14
-30 68 -57 37 -20 100 -48 140 -63 39 -16 71 -29 70 -30 -2 -2 -56 2 -120 7
-128 11 -152 5 -146 -36 4 -30 76 -61 226 -99 l127 -32 -120 -12 c-151 -16
-162 -19 -170 -44 -15 -45 38 -66 193 -77 l97 -7 -89 -30 c-94 -32 -119 -52
-100 -82 17 -28 82 -37 191 -26 54 5 99 9 101 8 1 -1 -27 -19 -64 -41 -75 -44
-90 -64 -73 -95 10 -20 17 -21 78 -16 36 2 102 16 145 30 l79 26 -56 -57 c-62
-63 -73 -97 -35 -111 33 -12 95 5 171 49 37 21 67 37 67 34 0 -2 -12 -26 -27
-54 -31 -54 -26 -82 16 -88 31 -5 111 49 174 117 84 91 136 205 162 354 3 21
10 37 14 35 5 -2 86 -99 180 -215 94 -117 179 -213 187 -213 25 0 94 63 94 85
0 13 -70 98 -186 225 l-187 205 103 7 c179 12 308 67 408 175 43 47 52 63 50
88 -2 24 -8 31 -29 33 -15 2 -44 -4 -65 -13 -20 -8 -39 -13 -42 -11 -2 3 14
26 36 53 45 54 82 119 82 145 0 63 -45 64 -120 3 -30 -24 -56 -43 -57 -41 -2
2 14 40 37 84 48 96 68 176 50 197 -26 32 -58 17 -112 -50 -28 -36 -52 -65
-53 -65 -1 0 9 42 22 93 15 56 23 113 21 147 -3 54 -4 55 -35 58 -31 3 -33 1
-73 -82 -22 -47 -42 -86 -43 -86 -2 0 1 39 5 88 14 150 -3 222 -50 208 -24 -8
-32 -27 -68 -161 l-28 -110 -13 125 c-18 187 -35 240 -73 240 -32 0 -41 -27
-47 -134 -3 -59 -10 -109 -15 -112 -4 -3 -8 3 -8 13 0 30 -49 212 -66 244 -12
24 -21 30 -42 27 l-27 -3 1 -135 2 -135 -33 87 c-53 142 -76 183 -105 186 -14
2 -29 0 -33 -4z m164 -384 c46 -132 78 -213 78 -195 1 17 -8 118 -19 225 -11
107 -19 218 -19 245 l1 50 20 -60 c17 -53 74 -323 93 -445 13 -76 21 -22 35
215 7 121 16 229 20 240 15 41 49 -265 50 -437 0 -135 15 -103 96 210 20 78
41 142 47 142 13 0 2 -152 -24 -324 -10 -72 -19 -138 -18 -146 0 -8 43 71 94
175 79 161 94 185 94 155 1 -40 -36 -184 -79 -311 -17 -48 -30 -90 -30 -94 0
-16 34 22 127 143 54 68 99 120 101 113 9 -26 -50 -158 -131 -294 -22 -37 -37
-70 -34 -73 9 -9 64 27 163 106 48 39 89 68 91 66 14 -14 -59 -115 -166 -229
-35 -37 -62 -70 -59 -72 3 -3 58 15 123 40 66 24 121 43 123 40 12 -11 -120
-125 -178 -153 -72 -35 -194 -65 -249 -60 -35 3 -34 4 34 31 71 28 124 61 114
71 -3 3 -37 -10 -75 -28 -114 -56 -117 -52 -33 33 44 44 79 87 79 96 0 25 -13
16 -51 -33 -20 -26 -60 -67 -89 -92 l-54 -45 43 63 c44 65 101 178 101 200 0
28 -18 9 -39 -42 -23 -57 -110 -200 -117 -193 -2 2 7 29 21 60 26 59 65 197
65 229 0 42 -17 12 -34 -59 -19 -84 -81 -243 -71 -183 3 19 10 60 16 90 11 69
12 213 1 206 -5 -3 -12 -54 -15 -113 -4 -59 -13 -133 -21 -163 l-14 -55 -1 93
c-1 107 -18 232 -33 247 -7 7 -8 -6 -4 -40 4 -27 9 -104 11 -170 l5 -120 -15
85 c-18 110 -57 243 -70 238 -5 -1 -8 -7 -7 -13 15 -45 52 -200 57 -240 6 -44
3 -39 -28 47 -44 121 -88 217 -94 201 -2 -6 16 -63 40 -125 24 -62 47 -126 51
-143 l6 -30 -16 30 c-58 110 -139 245 -146 245 -15 0 -8 -18 37 -94 48 -82
105 -191 105 -202 0 -5 -124 156 -191 250 -4 5 -12 7 -18 5 -7 -3 21 -49 66
-109 131 -175 131 -180 -1 -50 -69 69 -126 118 -126 110 0 -8 53 -68 118 -134
134 -137 91 -117 -125 59 -17 14 -34 21 -37 16 -6 -10 94 -95 198 -169 33 -23
56 -42 52 -42 -12 0 -108 51 -194 102 -46 28 -86 47 -90 43 -9 -9 17 -27 151
-102 61 -35 109 -63 106 -63 -14 0 -151 51 -213 79 -38 17 -71 29 -74 26 -3
-3 -3 -7 -1 -9 15 -14 147 -74 214 -97 44 -15 72 -28 63 -28 -25 -1 -145 25
-216 47 -60 19 -100 12 -47 -8 53 -20 181 -51 239 -57 51 -5 56 -8 35 -16 -23
-9 -187 -3 -261 9 -24 4 -38 3 -38 -4 0 -16 82 -27 212 -27 73 0 109 -3 95 -8
-42 -16 -169 -37 -223 -37 -30 0 -54 -4 -54 -10 0 -20 157 -7 290 25 56 13
-90 -55 -162 -76 -72 -21 -101 -39 -62 -39 24 0 160 47 215 75 27 14 49 24 49
22 0 -9 -131 -107 -170 -128 -30 -15 -39 -24 -28 -27 23 -5 64 18 143 79 l67
51 -28 -48 c-15 -27 -41 -66 -57 -87 -16 -21 -27 -41 -23 -44 11 -11 53 37 86
99 18 32 34 57 36 55 9 -9 -19 -104 -52 -174 -37 -77 -121 -177 -180 -214 -19
-12 -37 -20 -39 -17 -2 2 22 52 55 111 32 59 56 107 52 107 -3 0 -54 -32 -113
-70 -59 -39 -123 -77 -141 -84 -85 -35 -83 -27 25 77 98 97 122 127 98 127 -5
0 -51 -16 -103 -36 -115 -44 -223 -74 -263 -74 -29 0 -28 2 23 33 28 17 100
58 158 90 58 32 103 61 101 64 -3 2 -65 -5 -138 -17 -166 -27 -294 -36 -302
-23 -4 6 45 26 121 47 70 21 159 47 197 59 l70 22 -80 2 c-143 5 -372 23 -396
32 -22 8 -21 9 16 14 22 4 119 14 215 23 174 16 230 27 200 37 -8 3 -91 21
-185 41 -160 34 -363 94 -321 95 11 1 115 -8 233 -20 306 -29 313 -26 103 48
-213 75 -361 136 -339 141 9 1 125 -24 259 -58 133 -33 247 -59 252 -58 6 2
-70 45 -169 96 -199 102 -337 181 -330 188 7 7 185 -60 364 -137 90 -39 166
-69 168 -67 2 2 -76 61 -174 130 -170 121 -321 238 -307 238 22 0 262 -131
425 -233 51 -32 95 -56 97 -54 2 2 -44 48 -103 103 -240 220 -362 345 -305
315 37 -20 188 -135 325 -248 76 -63 141 -112 144 -110 3 3 -29 46 -70 96
-152 182 -324 421 -290 403 21 -12 291 -285 376 -381 31 -36 57 -61 57 -57 0
4 -37 69 -81 144 -96 162 -209 373 -209 392 0 21 94 -104 228 -302 69 -103
128 -185 130 -183 2 2 -19 57 -47 122 -63 148 -161 418 -161 443 1 17 86 -136
181 -323 61 -120 112 -217 114 -215 2 2 -14 71 -36 153 -42 161 -89 374 -89
403 1 29 50 -94 131 -328z m393 -987 c170 -187 194 -218 179 -227 -10 -5 -21
-14 -25 -20 -9 -14 -4 -20 -207 232 -153 191 -180 232 -152 232 4 0 96 -98
205 -217z"/>
<path d="M14565 14136 c-18 -13 -18 -17 -2 -112 10 -55 20 -112 23 -129 3 -18
-16 9 -50 70 -75 134 -96 159 -124 151 -36 -12 -36 -46 2 -161 19 -60 34 -110
32 -112 -1 -1 -22 25 -46 60 -60 84 -119 147 -139 147 -21 0 -41 -19 -41 -39
0 -9 26 -68 57 -131 31 -63 59 -119 62 -125 2 -5 -42 34 -98 88 -91 87 -106
98 -134 95 -24 -2 -33 -8 -35 -26 -4 -26 16 -61 105 -184 l63 -88 -88 65
c-118 88 -167 113 -189 99 -39 -24 -27 -49 72 -153 l96 -100 -107 55 c-111 56
-143 64 -164 39 -21 -25 -1 -53 93 -126 129 -102 130 -102 45 -70 -155 60
-198 63 -198 11 0 -30 26 -49 200 -150 30 -17 46 -29 35 -26 -77 21 -194 46
-216 46 -14 0 -30 -5 -37 -12 -36 -36 7 -71 165 -134 48 -20 90 -38 93 -40 2
-3 -50 -2 -117 2 -119 7 -121 6 -133 -16 -10 -19 -9 -25 6 -40 26 -24 90 -47
219 -80 61 -16 103 -31 95 -33 -8 -3 -64 -10 -123 -15 -114 -11 -140 -22 -135
-56 5 -32 47 -46 173 -59 l115 -11 -92 -31 c-79 -25 -94 -34 -96 -53 -7 -49
11 -55 155 -50 73 3 131 3 129 0 -3 -2 -33 -21 -68 -41 -66 -38 -82 -67 -57
-98 21 -24 130 -7 278 44 9 3 -10 -21 -41 -53 -59 -60 -68 -80 -46 -102 28
-28 98 -11 197 48 28 16 51 27 51 24 0 -2 -9 -22 -20 -44 -67 -131 36 -126
171 9 97 98 155 215 174 349 4 29 10 54 13 56 4 2 84 -92 177 -208 191 -237
195 -240 258 -182 20 19 37 40 37 45 0 13 -21 37 -227 262 -172 187 -170 179
-38 179 127 0 264 50 355 129 127 109 128 201 1 151 -54 -21 -65 -15 -30 15
41 38 99 137 99 169 0 33 -15 56 -36 56 -7 0 -43 -23 -79 -51 l-66 -50 32 63
c68 135 85 219 48 238 -27 15 -54 -3 -104 -69 -21 -28 -40 -49 -42 -47 -2 1 4
25 12 52 21 72 36 180 29 209 -7 29 -39 42 -60 24 -9 -7 -33 -47 -54 -88 l-38
-76 5 125 c6 140 -1 170 -43 170 -30 0 -37 -14 -73 -155 -32 -124 -31 -125
-50 61 -14 132 -29 178 -60 182 -13 2 -28 -1 -35 -8 -6 -6 -16 -66 -21 -133
l-10 -122 -24 100 c-13 55 -32 124 -43 153 -17 46 -23 52 -48 52 -39 0 -43
-19 -35 -148 4 -59 5 -105 2 -102 -2 3 -23 52 -46 110 -58 149 -73 167 -116
136z m78 -151 c20 -49 61 -169 93 -265 31 -96 59 -177 60 -179 11 -13 10 21
-6 179 -26 252 -33 381 -19 350 18 -43 65 -248 89 -392 13 -76 27 -138 32
-138 4 0 8 7 8 16 0 41 31 489 35 492 9 9 26 -107 35 -243 6 -82 14 -183 17
-224 3 -53 8 -70 14 -59 5 9 34 110 64 224 31 115 58 211 62 214 16 14 -18
-353 -42 -467 -13 -57 17 -12 70 105 78 171 115 245 121 239 11 -10 -21 -150
-66 -290 -26 -81 -45 -149 -41 -151 3 -2 55 59 115 136 59 76 110 137 113 134
11 -11 -50 -156 -107 -256 -33 -57 -60 -107 -60 -112 0 -22 43 4 160 96 46 37
86 62 88 56 6 -17 -60 -108 -145 -199 -41 -45 -73 -84 -70 -88 4 -3 57 13 118
36 61 23 114 39 117 37 10 -11 -119 -125 -170 -150 -60 -29 -145 -51 -233 -61
-71 -8 -65 3 20 34 65 24 114 55 103 67 -4 4 -19 -1 -33 -10 -15 -10 -56 -28
-91 -42 l-64 -24 67 64 c77 73 114 126 89 126 -9 0 -16 -4 -16 -9 0 -13 -77
-97 -122 -133 -43 -33 -43 -28 -2 27 29 40 94 170 94 190 0 31 -16 13 -38 -43
-21 -50 -107 -192 -117 -192 -2 0 9 30 24 68 37 89 64 192 59 223 -5 28 -7 24
-36 -83 -23 -83 -62 -191 -67 -186 -2 2 3 35 10 73 19 102 28 242 17 249 -6 3
-12 -30 -16 -82 -8 -101 -25 -201 -38 -222 -6 -10 -7 -5 -3 16 6 29 -10 236
-21 281 -10 37 -27 27 -20 -9 11 -55 28 -237 23 -255 -5 -24 -10 -10 -31 97
-21 113 -45 190 -58 190 -11 0 -11 -3 25 -140 13 -52 27 -115 30 -140 5 -37 1
-30 -23 40 -40 115 -91 230 -101 230 -14 0 -11 -18 10 -58 18 -36 91 -237 91
-250 0 -4 -25 39 -54 94 -69 129 -104 184 -116 184 -15 0 -14 -2 35 -85 46
-77 118 -215 112 -215 -1 0 -47 61 -102 135 -55 74 -103 134 -107 135 -19 1
-3 -27 65 -118 124 -165 124 -171 -1 -47 -67 65 -125 116 -129 112 -7 -7 6
-22 152 -176 l70 -74 -55 38 c-30 22 -88 66 -128 98 -40 33 -76 56 -80 52 -9
-9 72 -81 177 -155 46 -33 80 -60 76 -60 -11 0 -169 86 -233 126 -57 37 -62
39 -62 24 0 -13 87 -69 196 -126 47 -24 80 -44 75 -44 -18 0 -156 52 -213 81
-60 30 -78 35 -78 21 0 -12 147 -80 233 -108 40 -13 67 -23 61 -24 -27 -1
-176 32 -230 50 -64 23 -74 24 -74 11 0 -14 116 -50 228 -72 l97 -19 -162 4
c-90 2 -163 0 -163 -4 0 -12 83 -20 209 -21 l116 -1 -75 -19 c-41 -10 -110
-22 -152 -25 -43 -4 -78 -11 -78 -17 0 -14 149 0 243 22 42 10 74 15 72 10 -7
-11 -147 -67 -205 -82 -53 -14 -69 -35 -22 -28 36 4 179 57 209 77 14 8 27 14
29 12 6 -7 -97 -88 -148 -117 -47 -26 -60 -41 -35 -41 17 0 99 52 156 99 l44
36 -21 -41 c-11 -23 -37 -62 -56 -87 -19 -25 -31 -49 -27 -52 12 -7 52 41 91
110 35 60 41 66 33 33 -25 -115 -76 -217 -142 -290 -48 -52 -127 -115 -135
-107 -2 2 23 53 56 112 33 60 58 110 56 112 -2 2 -39 -21 -83 -51 -91 -63
-217 -128 -236 -122 -6 2 25 38 70 78 81 74 137 137 129 146 -3 2 -53 -14
-113 -37 -156 -59 -319 -98 -289 -70 5 5 77 47 159 93 87 48 143 84 133 86
-10 2 -75 -6 -146 -17 -130 -21 -311 -28 -282 -11 9 4 98 32 198 61 100 28
182 55 182 59 0 4 -93 10 -207 13 -197 5 -297 17 -263 30 8 3 69 11 135 17
190 17 305 32 305 39 0 4 -79 24 -175 44 -192 41 -353 89 -318 95 11 2 120 -6
242 -17 121 -12 228 -21 238 -21 34 0 -4 18 -117 55 -197 65 -408 150 -398
160 3 3 123 -24 268 -60 144 -36 265 -64 267 -61 2 2 -76 45 -174 95 -193 98
-337 180 -330 187 7 7 172 -54 356 -133 95 -40 175 -73 176 -71 2 2 -76 60
-173 129 -193 138 -314 231 -307 237 9 10 247 -120 433 -237 46 -29 86 -51 88
-49 2 3 -56 59 -129 126 -157 143 -313 299 -306 306 7 8 166 -110 334 -247 86
-71 158 -127 160 -125 2 2 -58 79 -132 173 -114 142 -199 259 -237 323 -33 55
225 -197 368 -360 33 -38 61 -66 64 -64 2 2 -34 69 -81 148 -140 237 -223 399
-197 383 18 -11 136 -174 249 -343 56 -85 104 -152 106 -150 2 2 -20 60 -49
128 -56 131 -139 354 -150 405 l-7 30 21 -25 c11 -14 76 -135 145 -270 68
-135 124 -239 125 -232 0 8 -18 82 -40 165 -36 139 -68 277 -84 367 -10 53 8
25 47 -75z m476 -1220 l190 -209 -21 -23 c-11 -12 -24 -20 -28 -18 -17 11
-360 443 -360 454 0 30 40 -7 219 -204z"/>
<path d="M15957 12513 c-12 -12 -7 -96 12 -185 10 -49 17 -88 15 -88 -2 0 -18
28 -35 62 -48 96 -109 188 -124 188 -56 0 -58 -44 -11 -185 29 -86 31 -96 13
-71 -12 16 -49 64 -82 105 -51 64 -65 76 -90 76 -51 0 -46 -43 23 -178 l59
-115 -101 94 c-55 52 -110 97 -123 100 -26 7 -53 -10 -53 -34 0 -19 47 -96
117 -191 59 -79 57 -80 -27 -16 -132 101 -189 125 -209 87 -13 -25 0 -45 98
-146 47 -48 82 -87 76 -85 -5 2 -58 28 -117 57 -91 46 -110 52 -128 42 -15 -8
-20 -19 -18 -38 3 -25 40 -59 188 -174 34 -26 33 -26 -60 9 -53 21 -115 37
-140 37 -42 1 -45 -1 -48 -26 -3 -24 5 -33 65 -71 37 -24 92 -57 121 -72 28
-16 51 -30 49 -31 -2 -2 -52 7 -112 21 -118 26 -145 23 -145 -20 0 -30 38 -54
178 -111 59 -24 103 -44 97 -44 -5 0 -61 5 -123 11 -124 11 -142 6 -142 -37 0
-31 56 -55 220 -98 140 -37 141 -36 -43 -52 -89 -7 -124 -27 -113 -62 9 -26
54 -40 156 -48 131 -9 135 -13 41 -43 -85 -26 -109 -45 -98 -75 12 -30 56 -38
177 -32 l115 6 -70 -43 c-71 -43 -87 -66 -64 -94 19 -22 134 -13 227 19 l73
25 -55 -56 c-40 -40 -56 -64 -56 -83 0 -53 63 -49 178 13 41 21 76 39 78 39 3
0 -7 -20 -21 -45 -81 -138 54 -120 189 26 78 84 155 255 156 344 1 62 19 46
191 -169 124 -153 180 -216 194 -216 11 1 38 16 59 36 35 30 38 38 30 58 -5
14 -88 111 -184 216 -96 105 -176 196 -178 201 -2 5 31 9 75 9 189 1 364 79
454 203 55 76 24 117 -62 83 -23 -9 -44 -15 -46 -12 -3 3 13 26 35 53 69 83
97 154 70 181 -21 21 -45 13 -112 -38 l-65 -50 47 97 c38 80 47 107 47 153 0
52 -1 55 -27 58 -22 3 -35 -7 -79 -62 -29 -36 -53 -66 -54 -66 -1 0 6 30 17
68 26 93 29 210 6 226 -28 17 -49 -2 -91 -84 -21 -41 -39 -75 -40 -76 -1 -1 0
51 2 117 4 151 0 169 -39 169 -36 0 -38 -5 -77 -159 l-27 -106 -8 70 c-24 226
-42 295 -76 295 -34 0 -43 -25 -52 -142 -5 -62 -10 -115 -10 -118 -1 -3 -15
51 -33 121 -42 166 -69 205 -111 163 -17 -16 -17 -28 0 -203 2 -30 3 -53 0
-50 -2 2 -20 45 -39 95 -54 140 -74 174 -101 174 -12 0 -26 -3 -29 -7z m160
-381 c42 -122 78 -221 80 -218 2 2 -5 102 -16 222 -30 317 -31 328 -21 318 13
-14 56 -191 85 -354 32 -183 35 -194 42 -187 5 6 32 374 33 455 0 23 4 42 9
42 14 0 31 -126 43 -327 6 -106 15 -193 18 -193 8 0 48 142 96 333 15 59 29
105 32 102 11 -11 1 -186 -19 -322 -11 -79 -19 -148 -17 -154 2 -7 41 69 87
167 46 98 87 183 92 189 29 31 -11 -154 -71 -329 -16 -50 -30 -94 -30 -99 0
-18 31 16 128 141 56 73 98 119 100 110 5 -25 -34 -117 -104 -241 -36 -66 -63
-121 -60 -124 7 -8 91 49 181 120 38 31 71 54 73 52 14 -13 -65 -121 -167
-228 -35 -37 -62 -69 -59 -72 5 -5 21 0 166 54 l83 31 -21 -29 c-73 -104 -255
-191 -395 -191 l-50 0 78 34 c82 36 110 54 102 66 -2 3 -35 -8 -72 -26 -114
-55 -124 -53 -55 10 64 60 109 122 97 134 -4 4 -15 -4 -24 -18 -26 -40 -81
-98 -124 -133 l-41 -32 43 64 c37 53 101 179 101 196 0 3 -5 5 -10 5 -6 0 -22
-26 -36 -57 -25 -58 -104 -186 -110 -180 -2 1 8 31 22 66 44 109 75 256 49
229 -3 -2 -14 -38 -24 -79 -34 -134 -89 -257 -61 -138 15 66 25 259 13 259 -6
0 -13 -45 -17 -102 -3 -57 -12 -128 -20 -158 l-14 -55 -1 70 c-1 92 -20 238
-31 249 -16 16 -19 2 -9 -39 5 -22 11 -94 14 -160 l5 -120 -20 100 c-25 132
-52 217 -69 223 -10 3 -12 0 -7 -14 14 -35 54 -199 61 -249 6 -44 2 -39 -28
45 -53 148 -81 210 -95 210 -9 0 -8 -9 4 -37 33 -77 94 -242 94 -255 0 -7 -24
32 -53 87 -70 132 -109 193 -115 177 -2 -7 14 -43 36 -80 47 -80 118 -221 104
-207 -5 6 -51 65 -101 133 -79 107 -111 139 -111 115 0 -3 26 -40 58 -82 95
-125 134 -181 125 -181 -4 0 -56 50 -114 111 -59 62 -112 110 -120 107 -8 -3
33 -52 107 -128 99 -103 111 -118 69 -90 -27 19 -85 62 -128 97 -73 59 -97 73
-97 56 0 -9 171 -145 220 -176 17 -11 29 -22 26 -24 -6 -6 -132 62 -214 113
-52 34 -72 41 -72 26 0 -9 108 -76 205 -127 39 -20 72 -39 75 -41 10 -11 -180
61 -232 87 -35 17 -59 25 -63 19 -7 -11 107 -69 212 -106 l68 -25 -51 6 c-28
3 -90 17 -138 31 -48 14 -93 23 -99 21 -20 -8 63 -38 162 -59 53 -11 107 -23
121 -27 43 -11 -151 -12 -219 -2 -36 6 -67 8 -70 6 -18 -18 71 -33 214 -35
l100 -2 -50 -13 c-27 -8 -90 -19 -139 -25 -89 -11 -104 -15 -94 -25 8 -8 185
14 248 30 30 8 56 13 57 11 6 -6 -152 -73 -202 -86 -59 -15 -80 -30 -44 -30
34 0 140 35 214 71 l60 30 -40 -36 c-42 -39 -128 -97 -157 -108 -16 -6 -26
-27 -13 -27 16 0 97 48 148 87 l59 46 -22 -44 c-13 -24 -36 -61 -53 -82 -16
-21 -26 -41 -22 -45 10 -10 57 48 94 117 l31 56 -6 -40 c-18 -107 -69 -209
-143 -289 -43 -46 -129 -112 -135 -104 -2 1 24 52 57 111 33 59 58 110 56 112
-3 2 -45 -24 -94 -57 -93 -62 -199 -118 -225 -118 -8 0 34 47 93 104 102 99
129 135 90 123 -10 -4 -84 -29 -165 -57 -100 -35 -160 -50 -185 -48 -36 3 -32
6 104 81 77 43 149 85 159 93 18 14 16 15 -16 9 -215 -38 -448 -58 -424 -36 5
5 90 32 189 61 99 29 187 56 195 61 9 5 -38 9 -120 9 -150 1 -322 15 -347 29
-18 9 -23 9 262 37 88 9 167 19 175 24 17 10 26 8 -184 51 -139 28 -343 86
-334 94 2 2 98 -5 213 -15 298 -27 305 -28 305 -21 0 3 -83 35 -183 69 -170
59 -357 139 -330 141 12 1 479 -114 508 -125 8 -3 15 -2 15 3 0 5 -39 28 -87
52 -153 74 -370 193 -400 218 -26 21 -21 21 70 -12 91 -32 256 -100 390 -159
32 -15 56 -22 52 -17 -3 6 -58 47 -123 92 -135 95 -349 257 -357 270 -17 26
247 -115 425 -228 52 -34 97 -59 99 -57 2 2 -29 34 -70 71 -116 105 -369 356
-364 361 7 7 126 -81 289 -213 238 -192 240 -193 134 -65 -95 115 -276 357
-295 394 -15 29 -14 28 36 -13 28 -24 111 -107 185 -185 73 -77 152 -161 175
-186 l43 -45 -31 55 c-17 30 -74 129 -126 221 -94 165 -154 286 -136 274 18
-10 145 -186 250 -343 57 -85 104 -152 106 -150 2 2 -23 69 -56 148 -64 154
-152 400 -145 407 7 7 79 -123 185 -336 56 -112 104 -202 106 -200 1 2 -23
108 -55 234 -32 127 -61 255 -64 285 l-6 55 26 -55 c14 -30 59 -155 101 -278z
m355 -949 c84 -92 171 -187 192 -211 l40 -43 -25 -24 -24 -24 -180 224 c-99
123 -181 229 -183 235 -2 5 3 10 12 10 8 0 84 -75 168 -167z"/>
<path d="M11303 11287 l-262 -142 6 -35 c7 -43 17 -50 72 -50 46 0 402 -43
485 -59 46 -8 48 -8 42 13 -3 11 -6 31 -6 44 0 20 -5 22 -52 22 -29 0 -116 7
-193 15 -77 8 -142 15 -145 15 -7 0 269 150 308 166 36 16 36 16 19 96 l-12
56 -262 -141z"/>
<path d="M18024 11391 c-38 -23 -59 -74 -74 -181 -6 -41 -13 -85 -16 -96 -5
-20 0 -23 48 -29 72 -10 391 -72 454 -89 l51 -13 12 59 c7 33 11 61 9 63 -2 1
-48 10 -103 19 -150 26 -150 26 -60 52 43 13 105 29 136 36 l57 12 6 45 c3 25
9 58 12 73 l6 26 -118 -38 c-179 -57 -181 -57 -189 -22 -18 82 -153 131 -231
83z m145 -129 c29 -21 47 -62 38 -85 -4 -12 -14 -13 -44 -7 -21 5 -64 13 -95
20 -67 13 -75 33 -32 77 22 22 32 25 66 20 23 -3 53 -14 67 -25z"/>
<path d="M17957 10916 c-95 -34 -158 -127 -165 -243 -8 -119 50 -202 186 -266
59 -28 77 -32 154 -32 80 0 89 2 129 30 84 60 137 203 110 301 -23 84 -122
168 -242 205 -71 22 -119 23 -172 5z m124 -126 c168 -53 259 -153 215 -238 -9
-18 -31 -39 -48 -48 -65 -34 -203 -1 -311 73 -97 67 -104 179 -13 219 43 19
84 17 157 -6z"/>
<path d="M11620 10899 c-69 -32 -305 -123 -397 -153 -46 -15 -83 -28 -83 -29
0 -14 52 -121 57 -120 5 2 85 34 178 72 94 37 209 81 258 97 48 15 85 33 83
39 -3 5 -13 34 -22 63 -10 28 -20 52 -23 52 -3 0 -26 -10 -51 -21z"/>
<path d="M11636 10580 c-76 -49 -185 -114 -242 -145 -57 -32 -104 -61 -104
-66 0 -4 11 -24 24 -44 14 -20 26 -41 28 -47 3 -7 47 15 106 52 57 34 104 61
106 59 2 -2 -29 -54 -70 -115 l-73 -112 37 -62 c26 -45 39 -59 45 -49 92 156
140 236 147 242 4 5 22 1 41 -8 68 -36 185 9 215 81 20 48 10 92 -39 167 -22
34 -50 78 -61 98 l-21 37 -139 -88z m164 -69 c17 -33 11 -66 -18 -94 -33 -32
-87 -50 -111 -38 -25 14 -57 53 -46 58 6 2 42 23 80 48 39 24 73 44 77 44 4 1
12 -8 18 -18z"/>
<path d="M17643 10422 c-9 -15 -27 -39 -40 -53 l-24 -26 86 -57 c48 -31 152
-106 232 -167 80 -61 147 -109 148 -107 32 35 75 102 68 108 -4 3 -53 37 -108
75 -55 37 -155 110 -222 161 l-123 94 -17 -28z"/>
<path d="M11947 10293 l-27 -27 43 -44 42 -43 -95 -92 c-52 -51 -133 -127
-179 -169 l-84 -77 47 -47 46 -48 176 175 176 174 42 -48 41 -48 30 31 30 31
-76 72 c-41 40 -98 98 -126 130 -28 31 -53 57 -55 57 -2 0 -16 -12 -31 -27z"/>
<path d="M17445 10176 c-44 -45 -104 -104 -133 -129 l-54 -47 30 -30 31 -30
43 46 44 46 169 -181 170 -181 46 46 47 46 -175 177 -174 176 48 42 48 42 -30
30 -30 30 -80 -83z"/>
<path d="M12166 9763 c-43 -148 -80 -275 -83 -284 -3 -10 7 -25 27 -39 31 -22
32 -22 55 -4 132 108 248 200 338 267 l108 82 -33 27 -33 27 -35 -34 c-45 -43
-254 -214 -258 -211 -2 2 76 262 104 346 4 11 -12 28 -49 53 -29 20 -55 37
-58 37 -2 0 -40 -120 -83 -267z"/>
<path d="M17130 9904 c-11 -5 -155 -95 -209 -131 -2 -1 41 -71 96 -155 55 -84
122 -191 148 -238 27 -47 50 -87 51 -89 2 -1 27 12 56 30 l53 33 -67 100 c-36
56 -65 102 -63 104 4 4 149 -83 194 -116 32 -24 35 -25 60 -9 14 9 43 26 65
37 l39 22 -44 25 c-206 118 -230 135 -219 148 6 7 15 28 20 46 22 77 -48 186
-125 194 -22 3 -47 2 -55 -1z m44 -124 c36 -44 44 -95 19 -128 -11 -15 -25
-27 -31 -27 -7 0 -34 36 -62 80 -45 72 -48 81 -33 93 31 23 79 15 107 -18z"/>
<path d="M12696 9700 c-65 -20 -116 -99 -116 -178 0 -43 7 -60 52 -128 60 -93
65 -126 23 -162 -57 -49 -135 -1 -135 84 0 24 -3 44 -7 44 -5 0 -24 -27 -44
-59 l-37 -59 27 -25 c67 -63 181 -88 246 -54 86 44 130 160 90 238 -9 16 -34
57 -55 91 -44 67 -50 106 -22 131 46 42 117 2 130 -71 l7 -43 36 47 c34 44 36
50 23 69 -34 52 -157 94 -218 75z"/>
<path d="M16586 9625 c-112 -46 -165 -122 -166 -236 0 -127 69 -264 159 -313
118 -63 294 -6 355 116 33 66 35 152 6 239 -64 189 -194 260 -354 194z m91
-56 c65 -24 128 -120 159 -240 20 -76 11 -131 -26 -173 -24 -26 -35 -31 -75
-31 -44 0 -50 4 -95 52 -89 97 -134 283 -84 350 21 28 58 53 81 53 6 0 24 -5
40 -11z"/>
<path d="M13254 9473 c3 -16 17 -149 32 -298 14 -148 27 -271 28 -271 0 -1 18
-4 38 -8 l37 -7 32 63 c37 74 208 368 242 418 l25 35 -42 10 -41 10 -64 -120
c-111 -210 -118 -220 -124 -193 -3 13 -11 97 -18 188 -7 91 -13 166 -15 168
-2 4 -114 31 -127 32 -5 0 -6 -12 -3 -27z"/>
<path d="M16195 9479 c-16 -5 -68 -16 -115 -25 -47 -9 -90 -17 -97 -19 -8 -3
-8 -16 3 -52 20 -62 91 -393 100 -459 l6 -51 62 14 c33 8 62 16 64 17 1 2 -9
50 -22 107 -39 167 -42 152 39 164 75 11 73 10 60 72 l-5 21 -70 -18 c-39 -10
-72 -15 -74 -12 -8 15 -28 143 -23 148 3 3 35 11 71 17 69 12 73 16 60 65 -7
24 -13 25 -59 11z"/>
<path d="M13795 9307 c-10 -128 -34 -356 -45 -421 -5 -33 -9 -61 -7 -62 1 -1
18 -4 37 -8 l36 -6 13 147 c21 250 11 246 123 48 53 -93 102 -182 108 -197 10
-21 20 -27 54 -30 l42 -3 18 185 c10 102 24 227 32 279 8 52 13 95 12 97 -2 1
-20 5 -40 9 l-38 7 0 -53 c-1 -60 -25 -287 -32 -294 -5 -5 -82 124 -153 258
-32 60 -63 110 -69 112 -6 2 -27 6 -48 8 l-36 5 -7 -81z"/>
<path d="M15358 9353 c-19 -3 -30 -12 -33 -26 -3 -12 -16 -74 -29 -138 -21
-98 -86 -368 -101 -419 -4 -13 3 -15 35 -12 39 4 39 4 50 61 6 31 13 66 16 78
5 24 18 29 96 36 l47 4 28 -77 27 -77 66 5 c36 2 67 6 68 8 2 1 -34 94 -80
206 -47 112 -98 238 -114 281 -16 42 -33 76 -39 76 -5 -1 -22 -4 -37 -6z m48
-340 c-3 -8 -22 -13 -46 -13 -44 0 -47 7 -31 70 5 19 12 48 16 65 6 29 8 27
36 -39 16 -39 27 -76 25 -83z"/>
<path d="M14407 9066 c-4 -144 -9 -272 -12 -286 -6 -25 -5 -25 63 -27 67 -1
69 -1 64 22 -2 13 1 139 7 281 7 141 11 257 9 259 -2 1 -30 5 -64 7 l-61 4 -6
-260z"/>
<path d="M14725 9278 l0 -40 60 4 60 3 0 -248 0 -247 65 0 65 0 0 247 0 248
58 -3 57 -4 0 40 0 39 -183 0 -182 0 0 -39z"/>
<path d="M2762 6214 c-33 -24 -6 -41 80 -48 111 -9 152 -21 192 -57 25 -22 38
-44 46 -82 8 -36 15 -289 20 -812 7 -726 8 -764 29 -858 44 -199 113 -344 218
-458 197 -213 487 -301 909 -278 213 12 389 75 551 198 191 144 299 345 349
653 14 87 18 217 23 828 6 719 6 725 28 773 27 59 73 82 181 93 74 7 98 22 74
46 -16 16 -879 18 -900 2 -34 -25 -6 -40 97 -52 147 -15 191 -47 211 -151 14
-73 13 -1430 0 -1559 -39 -360 -188 -557 -479 -633 -96 -25 -268 -27 -356 -4
-226 60 -379 216 -449 457 -49 171 -51 211 -51 1003 0 718 1 742 20 790 26 64
74 90 180 100 70 7 75 9 75 31 0 13 -6 24 -12 25 -7 0 -240 1 -517 2 -355 1
-508 -1 -519 -9z"/>
<path d="M21512 5883 c-11 -16 -205 -460 -432 -988 -227 -528 -423 -981 -436
-1007 -54 -107 -107 -143 -237 -161 -67 -10 -82 -15 -85 -31 -2 -10 1 -21 6
-25 8 -5 715 -6 765 -2 5 1 7 11 5 24 -3 20 -10 23 -76 28 -117 11 -142 38
-122 137 11 50 113 315 184 477 l25 55 364 0 c280 0 367 -3 374 -12 25 -32
244 -609 238 -627 -3 -11 -19 -24 -35 -30 -33 -11 -39 -35 -12 -47 9 -4 323
-8 697 -9 378 -2 740 -7 815 -13 428 -35 733 9 1003 144 121 61 196 115 283
205 188 196 287 433 301 720 26 527 -242 909 -739 1053 -198 57 -233 59 -1004
63 -602 4 -712 2 -717 -10 -10 -25 7 -33 94 -43 110 -14 158 -37 184 -89 19
-39 20 -63 23 -715 3 -682 -7 -1094 -29 -1162 -7 -21 -22 -47 -34 -58 -41 -39
-177 -48 -274 -18 -81 25 -162 137 -256 353 -31 72 -206 479 -387 905 -337
790 -369 862 -396 893 -24 27 -67 22 -90 -10z m2418 -218 c182 -40 329 -108
460 -212 98 -77 158 -152 216 -268 67 -136 95 -257 101 -445 8 -243 -16 -385
-93 -545 -49 -102 -99 -165 -184 -230 -155 -119 -349 -175 -613 -175 -243 0
-389 58 -420 166 -15 55 -22 1665 -7 1693 6 11 25 25 43 30 51 16 408 6 497
-14z m-2307 -708 c76 -199 140 -372 144 -384 l5 -23 -302 0 c-238 0 -301 3
-297 13 2 6 62 156 132 332 70 176 136 344 147 373 10 28 22 52 26 52 4 0 69
-164 145 -363z"/>
<path d="M5731 5863 c-7 -19 -16 -335 -26 -968 -8 -517 -17 -965 -20 -995 -14
-133 -37 -157 -167 -173 -85 -11 -93 -14 -96 -34 -2 -13 0 -24 5 -24 29 -4
792 -5 811 -1 17 3 22 10 20 26 -3 19 -13 22 -93 32 -138 17 -167 40 -195 154
-11 48 -55 1338 -45 1348 3 3 62 -55 132 -129 230 -243 453 -466 793 -793 680
-654 705 -676 762 -676 58 0 55 -35 72 955 9 501 20 954 25 1008 14 142 40
173 165 192 62 9 71 13 74 33 l3 22 -403 -2 c-394 -3 -403 -3 -403 -23 0 -17
11 -21 97 -31 131 -15 166 -38 189 -124 11 -42 51 -1404 42 -1423 -2 -4 -378
366 -835 823 -761 760 -833 830 -863 830 -26 0 -35 -5 -44 -27z"/>
<path d="M15895 5864 c-332 -74 -535 -288 -535 -564 1 -178 55 -306 190 -441
92 -93 159 -140 380 -272 265 -157 336 -233 361 -386 11 -67 -3 -153 -34 -220
-67 -144 -252 -225 -453 -200 -257 32 -396 165 -421 401 -7 71 -27 93 -53 60
-18 -22 -27 -125 -33 -394 -1 -52 -6 -88 -12 -88 -6 0 -39 17 -74 38 -111 65
-312 280 -655 701 -80 99 -146 182 -146 186 0 3 15 18 33 33 69 57 191 180
234 237 69 91 121 207 132 292 33 266 -124 488 -393 557 -124 33 -220 37 -766
34 -537 -3 -545 -3 -545 -23 0 -18 11 -21 92 -31 99 -12 143 -32 177 -77 21
-28 21 -29 21 -915 0 -946 -1 -973 -49 -1028 -18 -21 -36 -28 -106 -38 -76
-11 -85 -14 -88 -34 -2 -12 0 -22 5 -23 4 0 212 -1 462 -2 300 -2 459 1 468 8
18 13 7 45 -16 45 -54 1 -193 20 -211 30 -44 24 -59 85 -71 282 -5 101 -9 260
-7 353 l3 170 163 0 c162 0 163 0 182 -25 11 -14 59 -81 107 -150 253 -364
442 -585 554 -648 97 -55 149 -64 409 -68 131 -3 289 -11 357 -20 160 -21 488
-15 578 10 216 60 397 220 466 412 30 83 38 293 15 384 -50 194 -198 360 -453
507 -246 141 -309 181 -363 230 -102 92 -139 204 -105 318 22 78 104 162 189
194 95 35 193 47 283 33 184 -29 292 -127 328 -298 15 -74 18 -79 40 -70 27
10 33 49 36 254 3 168 1 204 -10 212 -67 41 -527 65 -666 34z m-1790 -188 c74
-19 132 -52 192 -109 85 -80 128 -188 139 -347 14 -205 -71 -393 -215 -478
-41 -24 -58 -27 -158 -31 -122 -3 -245 13 -268 36 -13 12 -15 80 -15 461 0
246 4 452 8 458 4 6 14 14 22 17 30 11 246 7 295 -7z"/>
<path d="M12820 5857 c-19 -9 -280 -13 -1035 -17 -997 -5 -1010 -5 -1010 -25
0 -17 11 -21 88 -31 48 -6 94 -18 103 -25 29 -24 11 -86 -109 -385 -152 -379
-475 -1156 -486 -1167 -8 -8 -534 1336 -565 1444 -28 95 -6 122 112 135 60 7
78 20 60 41 -8 10 -187 13 -894 13 l-884 0 0 -24 c0 -21 5 -24 67 -30 95 -10
145 -34 169 -82 18 -37 19 -72 22 -789 3 -774 -5 -1054 -31 -1118 -20 -46 -55
-64 -144 -72 -72 -7 -98 -24 -74 -48 15 -15 949 -15 969 -1 8 6 13 18 10 26
-5 11 -36 17 -117 25 -163 16 -186 37 -201 180 -11 104 -12 1664 -1 1741 14
99 66 134 201 135 148 1 239 -48 293 -155 14 -29 207 -476 427 -992 220 -517
412 -955 426 -973 34 -45 74 -45 108 0 31 41 60 102 309 657 107 239 260 575
340 745 79 171 168 364 197 430 61 138 104 210 148 247 89 75 290 47 337 -47
19 -39 20 -63 23 -700 4 -674 -7 -1111 -29 -1177 -20 -61 -47 -79 -141 -92
-63 -9 -84 -16 -86 -28 -2 -9 5 -20 15 -25 10 -4 337 -8 727 -8 l709 0 19 26
c22 29 45 148 54 283 7 104 1 146 -21 146 -18 0 -26 -17 -54 -115 -33 -115
-89 -155 -242 -174 -176 -23 -361 -7 -448 37 -102 51 -108 85 -103 582 l4 300
146 0 c202 -1 383 -15 418 -33 53 -28 75 -60 84 -128 5 -35 10 -70 10 -76 0
-7 9 -13 20 -13 27 0 40 36 40 114 0 34 7 116 15 181 17 141 19 192 5 200 -6
4 -28 -9 -51 -28 -22 -19 -52 -38 -67 -42 -15 -4 -161 -9 -324 -12 l-298 -5 0
381 c0 310 3 383 13 387 30 11 512 -14 563 -30 77 -24 110 -68 122 -164 6 -48
10 -57 29 -60 14 -2 23 3 28 17 6 19 36 323 39 391 1 39 -13 46 -54 27z"/>
<path d="M26750 5857 c-18 -9 -217 -13 -735 -17 -701 -5 -710 -5 -710 -25 0
-18 10 -21 90 -31 133 -16 176 -43 194 -124 13 -57 14 -1551 1 -1705 -16 -190
-37 -219 -168 -231 -67 -6 -72 -8 -72 -30 0 -13 3 -24 8 -24 151 -5 1422 -8
1435 -4 35 11 57 97 77 300 10 107 3 149 -25 149 -16 0 -23 -14 -38 -70 -27
-105 -59 -152 -121 -180 -89 -41 -278 -55 -446 -34 -147 18 -208 61 -230 161
-7 36 -10 169 -8 403 l3 350 130 3 c195 4 397 -12 443 -36 50 -26 73 -69 80
-147 4 -60 7 -65 28 -65 28 0 31 8 39 145 4 55 13 152 21 215 12 100 12 116 0
129 -13 12 -20 10 -55 -22 -22 -20 -57 -39 -78 -44 -21 -4 -166 -8 -323 -8
l-285 0 -3 374 c-2 293 1 376 10 383 16 10 394 0 496 -13 98 -12 144 -37 171
-92 12 -24 21 -53 21 -64 0 -49 13 -83 31 -83 10 0 21 5 25 11 3 6 12 77 19
158 8 80 17 176 21 214 7 73 4 77 -46 54z"/>
<path d="M16860 5816 c0 -21 5 -24 68 -30 89 -9 145 -37 169 -84 17 -35 18
-82 21 -782 3 -767 -5 -1060 -32 -1124 -19 -45 -55 -63 -145 -72 -73 -7 -97
-22 -73 -46 16 -16 949 -17 970 -2 8 6 13 18 10 26 -5 11 -36 17 -117 25 -166
16 -187 36 -202 190 -6 58 -9 436 -7 928 3 772 4 832 21 862 25 46 51 60 142
75 70 12 80 16 83 36 l3 22 -455 0 -456 0 0 -24z"/>
<path d="M18037 5827 c-10 -25 8 -33 94 -43 110 -14 158 -37 184 -89 19 -39
20 -63 23 -738 3 -678 -6 -1064 -28 -1138 -17 -59 -48 -80 -142 -93 -62 -9
-84 -16 -86 -28 -2 -9 3 -20 10 -24 7 -5 159 -9 338 -9 179 0 404 -7 500 -14
291 -22 536 -6 740 50 382 105 660 361 773 714 45 138 52 191 51 375 0 146 -4
190 -22 263 -113 454 -439 709 -987 772 -181 21 -1440 22 -1448 2z m1188 -152
c208 -34 381 -106 522 -219 101 -81 160 -154 219 -271 67 -136 95 -258 101
-443 14 -407 -88 -657 -331 -817 -144 -94 -297 -130 -551 -130 -162 0 -188 2
-257 24 -96 29 -150 72 -168 133 -18 57 -27 1666 -10 1697 6 11 25 25 43 30
52 15 332 13 432 -4z"/>
<path d="M28889 2930 c-265 -190 -499 -388 -499 -421 0 -25 10 -24 78 10 224
113 507 201 648 201 47 0 66 4 70 14 3 8 -23 73 -58 143 -82 166 -80 166 -239
53z"/>
<path d="M20514 2650 c-228 -19 -401 -63 -569 -144 -249 -121 -439 -301 -557
-531 -96 -188 -136 -341 -145 -556 -13 -318 54 -583 208 -819 56 -86 245 -274
338 -334 279 -184 597 -266 1035 -266 270 0 512 31 620 79 58 25 76 62 105
216 50 266 55 385 17 385 -21 0 -32 -19 -51 -85 -25 -89 -72 -171 -135 -234
-104 -104 -215 -143 -449 -161 -177 -14 -289 -1 -437 49 -364 122 -636 421
-734 807 -58 225 -53 550 10 783 81 295 278 514 540 601 258 84 651 58 897
-61 160 -77 250 -202 276 -384 9 -62 18 -92 30 -99 41 -26 55 52 56 304 1 80
6 185 11 234 13 113 10 123 -43 131 -23 4 -100 17 -172 31 -269 50 -629 73
-851 54z"/>
<path d="M1610 2622 c-32 -15 -107 -17 -812 -17 -798 0 -810 -1 -795 -38 4
-10 31 -16 97 -20 102 -6 170 -33 202 -77 10 -14 23 -52 28 -85 13 -82 13
-1876 0 -2018 -13 -129 -35 -203 -71 -230 -18 -13 -52 -21 -107 -26 -45 -4
-86 -11 -92 -17 -16 -16 -1 -44 24 -44 43 -1 1002 -1 1027 0 29 0 46 27 30 43
-6 6 -60 14 -122 18 -133 10 -176 27 -202 81 -35 70 -41 169 -41 658 l-1 475
265 0 c301 0 331 -6 393 -75 33 -36 49 -81 59 -170 2 -19 9 -25 28 -25 l25 0
12 180 c6 99 16 209 22 245 16 95 14 120 -7 120 -10 0 -33 -16 -52 -35 -56
-57 -72 -60 -425 -60 l-320 0 -3 452 c-2 423 -1 453 15 461 10 4 151 5 313 2
280 -6 298 -7 348 -29 54 -25 98 -67 107 -104 3 -12 9 -51 13 -87 6 -57 10
-65 29 -68 33 -5 39 21 47 178 4 74 14 175 23 223 14 77 15 90 2 98 -17 11
-16 11 -59 -9z"/>
<path d="M10916 2271 c-10 -11 -210 -467 -445 -1013 -235 -546 -435 -1005
-445 -1020 -10 -16 -24 -28 -32 -28 -34 0 -276 264 -581 634 l-182 221 62 54
c97 85 194 190 242 262 84 124 110 215 103 354 -4 80 -10 102 -42 168 -64 133
-167 224 -309 271 -129 43 -197 47 -772 48 -302 0 -558 -1 -568 -1 -13 -1 -17
-7 -15 -23 3 -21 10 -24 77 -30 86 -7 149 -29 180 -62 40 -42 43 -133 38
-1001 -5 -883 -7 -909 -60 -962 -21 -22 -38 -27 -99 -32 -40 -4 -79 -10 -85
-14 -15 -10 -17 -33 -3 -42 13 -8 917 -8 930 0 5 3 10 15 10 25 0 23 -16 27
-120 33 -141 7 -164 36 -180 223 -15 186 -13 601 3 607 25 9 307 -6 321 -17 8
-6 69 -90 137 -186 284 -406 435 -577 564 -639 39 -19 73 -39 77 -45 9 -13
720 -17 756 -4 12 4 22 14 22 22 0 24 -34 36 -100 36 -51 0 -65 4 -85 25 -29
28 -31 49 -10 129 16 60 180 471 198 494 7 9 94 12 372 12 278 0 365 -3 372
-12 13 -17 243 -601 243 -616 0 -7 -16 -22 -35 -33 -47 -28 -45 -46 8 -53 72
-10 2138 -15 2163 -6 13 5 30 19 38 32 22 34 48 199 49 318 2 95 0 105 -17
108 -20 4 -36 -13 -36 -40 0 -35 -43 -131 -74 -165 -17 -20 -50 -45 -73 -55
-65 -29 -236 -41 -410 -29 -227 16 -271 35 -300 128 -17 54 -18 119 -18 888 0
783 1 832 18 863 23 43 62 59 167 69 78 7 85 10 88 31 2 16 -2 22 -15 23 -10
0 -224 1 -476 1 -319 1 -462 -3 -469 -10 -21 -21 10 -39 79 -45 91 -9 152 -41
178 -92 18 -38 19 -69 23 -640 4 -620 -9 -1159 -29 -1232 -6 -23 -22 -52 -36
-65 -23 -21 -33 -23 -148 -23 -121 0 -124 1 -167 30 -57 41 -109 111 -162 220
-25 50 -207 473 -406 940 -363 852 -413 964 -434 977 -21 14 -63 8 -80 -11z
m-2013 -206 c173 -36 295 -154 343 -332 9 -36 15 -101 16 -168 0 -91 -5 -124
-26 -191 -39 -121 -105 -205 -206 -260 -30 -16 -55 -19 -180 -18 -98 0 -160 6
-190 15 l-45 15 -3 459 c-1 306 1 462 8 469 25 25 189 31 283 11z m2120 -729
c76 -199 141 -373 144 -384 l5 -22 -301 0 c-165 0 -301 2 -301 5 0 2 64 168
143 367 79 200 147 371 150 381 4 9 10 17 14 17 4 0 70 -164 146 -364z"/>
<path d="M24402 2263 c-11 -16 -205 -460 -432 -988 -227 -528 -423 -982 -437
-1008 -32 -64 -90 -120 -147 -142 -25 -10 -48 -16 -51 -14 -2 3 2 43 9 89 33
205 30 300 -9 300 -15 0 -17 -5 -40 -95 -21 -79 -48 -120 -98 -149 -115 -66
-471 -71 -597 -8 -45 22 -59 36 -80 77 l-25 50 0 375 0 375 170 3 c211 3 364
-10 407 -35 51 -30 71 -65 77 -140 5 -60 9 -68 28 -71 26 -4 30 6 38 123 3 50
13 144 21 210 8 66 14 128 14 138 0 32 -30 31 -64 -2 -18 -17 -48 -36 -67 -42
-20 -7 -152 -14 -323 -16 -236 -4 -290 -3 -297 8 -11 18 -11 730 0 748 8 12
47 13 238 7 250 -8 334 -18 381 -46 40 -25 70 -84 78 -154 6 -46 10 -56 26
-56 27 0 34 29 48 190 6 80 16 167 22 193 13 64 3 76 -49 56 -31 -12 -158 -14
-736 -15 -486 -1 -701 -4 -709 -12 -25 -25 0 -39 82 -45 101 -8 162 -34 187
-79 17 -31 18 -81 18 -928 0 -829 -1 -899 -18 -952 -22 -73 -45 -88 -145 -99
-42 -4 -78 -8 -79 -8 -9 -2 -1 -41 8 -47 16 -9 2088 -11 2117 -2 25 9 30 43 6
52 -9 3 -40 6 -69 6 -158 0 -159 60 -2 435 l92 220 366 3 c286 2 369 -1 376
-10 15 -19 243 -595 243 -613 0 -9 -16 -25 -35 -36 -42 -25 -44 -36 -8 -50 30
-11 1594 -15 1613 -4 5 3 10 15 10 25 0 23 -16 27 -120 33 -142 7 -166 37
-181 229 -5 68 -8 231 -7 363 l3 240 155 -4 c139 -3 157 -5 177 -24 12 -11 62
-77 110 -146 281 -405 460 -609 588 -670 39 -19 73 -39 77 -45 9 -13 720 -17
756 -4 12 4 22 14 22 22 0 24 -34 36 -100 36 -51 0 -65 4 -85 25 -28 27 -30
47 -12 125 14 56 181 475 200 498 7 9 90 12 376 10 l366 -3 122 -305 c68 -168
123 -311 123 -318 0 -7 -16 -22 -35 -33 -40 -24 -45 -44 -12 -52 36 -9 741
-12 755 -4 17 11 15 44 -4 51 -9 3 -37 6 -62 6 -71 0 -115 16 -163 59 -90 80
-82 61 -733 1588 -109 254 -207 477 -220 495 -28 43 -79 46 -107 8 -11 -14
-208 -464 -438 -1001 -231 -537 -429 -992 -441 -1012 -12 -21 -28 -37 -36 -37
-36 0 -284 272 -603 660 l-160 195 67 59 c241 215 342 386 342 582 0 173 -108
352 -257 427 -162 82 -223 88 -868 88 -302 1 -558 0 -568 0 -13 -1 -17 -7 -15
-23 3 -21 10 -24 82 -30 98 -9 163 -39 191 -88 19 -34 20 -54 23 -746 2 -405
-1 -795 -7 -905 -16 -294 -25 -312 -178 -318 -131 -4 -175 9 -239 75 -73 74
-115 163 -429 899 -476 1116 -496 1162 -516 1184 -29 30 -73 28 -97 -6z m2141
-198 c174 -37 295 -155 341 -332 21 -79 21 -250 1 -328 -33 -127 -114 -238
-208 -287 -54 -27 -204 -36 -315 -18 -125 20 -112 -37 -112 489 0 358 3 461
13 469 26 22 190 26 280 7z m-2025 -738 c78 -204 142 -378 142 -384 0 -10 -65
-13 -293 -13 -162 0 -296 2 -299 5 -3 3 39 119 94 258 55 139 122 309 150 380
27 70 52 127 56 127 4 0 71 -168 150 -373z m4151 -9 c78 -202 141 -372 141
-378 0 -7 -100 -10 -300 -10 -165 0 -300 2 -300 5 0 3 63 166 141 363 78 196
145 368 150 381 6 14 13 21 18 15 5 -5 73 -174 150 -376z"/>
<path d="M3265 2234 c-49 -12 -187 -14 -727 -12 -686 2 -709 1 -680 -35 8 -9
41 -16 88 -20 100 -7 162 -38 188 -92 19 -37 20 -71 24 -630 4 -614 -9 -1170
-29 -1242 -17 -64 -46 -84 -126 -90 -37 -3 -76 -10 -85 -15 -18 -9 -24 -33
-10 -42 4 -2 326 -7 716 -10 793 -7 746 -11 766 65 30 111 49 349 30 379 -17
27 -43 -2 -57 -63 -24 -109 -71 -168 -152 -196 -99 -33 -400 -33 -514 -1 -44
13 -105 63 -119 99 -22 57 -28 189 -22 490 l7 314 246 -6 c268 -6 317 -14 361
-59 28 -28 32 -40 45 -141 6 -42 9 -48 28 -45 25 3 23 -5 53 301 20 199 16
219 -33 179 -59 -47 -72 -52 -144 -62 -41 -5 -183 -10 -317 -10 l-242 0 2 383
3 382 225 -2 c124 -2 255 -8 292 -14 114 -18 162 -67 176 -175 8 -63 31 -84
51 -45 9 16 39 287 45 396 1 36 -8 38 -89 19z"/>
<path d="M7640 2237 c-18 -9 -207 -12 -723 -13 -486 -1 -701 -4 -709 -12 -25
-25 0 -39 80 -44 93 -7 162 -34 189 -74 17 -27 18 -72 18 -934 0 -880 -1 -907
-20 -960 -24 -65 -62 -90 -138 -90 -27 0 -57 -5 -68 -10 -19 -11 -26 -35 -11
-44 4 -2 328 -7 720 -11 699 -5 712 -5 731 14 26 26 37 68 56 214 23 180 20
227 -15 227 -20 0 -22 -4 -45 -95 -20 -77 -55 -130 -103 -154 -121 -61 -471
-63 -592 -3 -45 22 -59 36 -80 77 l-25 50 -3 354 c-2 195 -1 365 2 378 l6 23
178 0 c393 -1 458 -25 471 -177 6 -64 7 -68 31 -68 24 0 25 3 32 85 4 47 15
152 24 233 9 81 13 154 10 162 -8 23 -30 18 -61 -15 -16 -17 -45 -35 -64 -41
-21 -7 -155 -13 -325 -16 -236 -4 -290 -3 -297 8 -11 18 -11 730 0 748 8 12
47 13 238 7 257 -8 339 -18 385 -50 41 -28 68 -82 75 -150 5 -45 9 -56 24 -56
29 0 36 26 49 185 6 83 16 170 21 194 15 70 -2 86 -61 58z"/>
<path d="M3602 2222 c-17 -3 -22 -9 -20 -25 3 -19 11 -23 73 -28 137 -13 197
-48 216 -125 11 -51 11 -1567 0 -1710 -15 -180 -45 -224 -153 -224 -67 0 -88
-9 -88 -36 0 -16 6 -24 18 -24 9 0 166 -2 347 -3 182 -2 423 -9 537 -17 394
-26 670 20 938 156 274 139 456 372 542 692 29 109 36 371 14 499 -61 351
-287 623 -617 744 -108 39 -215 64 -364 85 -100 13 -229 16 -770 18 -357 0
-660 0 -673 -2z m1058 -152 c303 -27 546 -133 717 -313 112 -118 182 -263 219
-454 21 -106 23 -339 5 -458 -16 -101 -62 -245 -100 -310 -86 -150 -272 -282
-461 -328 -228 -56 -510 -45 -649 26 -55 28 -78 58 -92 122 -13 54 -26 1591
-14 1652 7 40 31 54 110 63 91 11 140 11 265 0z"/>
<path d="M17290 1783 c-378 -67 -648 -317 -736 -679 -26 -104 -23 -295 5 -409
85 -351 353 -596 720 -659 119 -20 312 -21 427 -1 436 75 727 378 774 805 55
499 -234 869 -740 945 -121 19 -340 18 -450 -2z m367 -136 c98 -34 156 -69
232 -141 180 -171 264 -431 241 -747 -11 -136 -32 -224 -81 -325 -95 -201
-277 -306 -500 -291 -99 7 -220 43 -296 87 -170 98 -299 294 -350 530 -24 114
-24 333 0 449 42 198 139 340 280 413 125 63 331 74 474 25z"/>
<path d="M14454 1758 c-12 -19 27 -38 80 -38 66 0 116 -26 139 -70 16 -33 17
-80 14 -740 -2 -610 -5 -710 -18 -745 -18 -45 -48 -65 -99 -65 -54 0 -81 -11
-78 -29 3 -14 37 -17 288 -22 157 -4 375 -10 485 -14 165 -6 220 -5 314 9 404
60 661 258 777 599 34 100 48 214 41 341 -8 142 -27 219 -82 331 -92 188 -233
309 -443 381 -186 63 -226 67 -849 71 -415 2 -564 0 -569 -9z m1026 -138 c210
-54 384 -173 474 -324 70 -117 106 -266 106 -442 0 -325 -101 -521 -325 -632
-98 -49 -166 -63 -330 -69 -165 -6 -257 8 -323 49 -69 42 -67 21 -70 737 -2
355 -1 655 3 668 8 35 54 43 225 39 117 -3 176 -10 240 -26z"/>
</g>
</svg>
